<?xml version="1.0" encoding="UTF-8" standalone="no"?><!DOCTYPE svg PUBLIC "-//W3C//DTD SVG 1.1//EN" "http://www.w3.org/Graphics/SVG/1.1/DTD/svg11.dtd"><!-- Generated by graphviz version 2.40.1 (20161225.0304)
 --><!-- Title: G Pages: 1 --><svg xmlns="http://www.w3.org/2000/svg" xmlns:xlink="http://www.w3.org/1999/xlink" width="3953pt" height="488pt" viewBox="0.00 0.00 3953.23 488.00">
<g id="graph0" class="graph" transform="scale(1 1) rotate(0) translate(4 484)">
<title>G</title>
<polygon fill="#ffffff" stroke="transparent" points="-4,4 -4,-484 3949.2299,-484 3949.2299,4 -4,4"/>
<!-- 0 -->
<g id="node1" class="node">
<title>0</title>
<ellipse fill="none" stroke="#000000" cx="1959.0115" cy="-462" rx="55.097" ry="18"/>
<text text-anchor="middle" x="1959.0115" y="-457.8" font-family="Times,serif" font-size="14.00" fill="#000000">SERVER 0</text>
</g>
<!-- 5 -->
<g id="node2" class="node">
<title>5</title>
<ellipse fill="none" stroke="#000000" cx="1753.0115" cy="-373.2" rx="27" ry="18"/>
<text text-anchor="middle" x="1753.0115" y="-369" font-family="Times,serif" font-size="14.00" fill="#000000">5</text>
</g>
<!-- 0&#45;&#45;5 -->
<g id="edge1" class="edge">
<title>0--5</title>
<path fill="none" stroke="#000000" d="M1903.7943,-459.615C1785.4976,-454.2377 1517.1934,-440.5018 1503.7931,-426 1498.7258,-420.5161 1498.9054,-414.8445 1503.7931,-409.2 1518.209,-392.5521 1664.3322,-379.8082 1725.8954,-375.1365"/>
<text text-anchor="middle" x="1542.6207" y="-413.4" font-family="Times,serif" font-size="14.00" fill="#000000">{95.0 // 0.85}</text>
</g>
<!-- 6 -->
<g id="node3" class="node">
<title>6</title>
<ellipse fill="none" stroke="#000000" cx="3153.0115" cy="-373.2" rx="27" ry="18"/>
<text text-anchor="middle" x="3153.0115" y="-369" font-family="Times,serif" font-size="14.00" fill="#000000">6</text>
</g>
<!-- 0&#45;&#45;6 -->
<g id="edge2" class="edge">
<title>0--6</title>
<path fill="none" stroke="#000000" d="M1998.5492,-449.3537C2006.8772,-447.1705 2015.6688,-445.2151 2024.0115,-444 2127.6043,-428.9121 2864.3337,-450.9146 2966.0115,-426 2982.2979,-422.0093 2984.0194,-414.8888 2999.7931,-409.2 3043.1047,-393.5795 3095.7797,-382.9256 3126.7281,-377.4675"/>
<text text-anchor="middle" x="3037.6207" y="-413.4" font-family="Times,serif" font-size="14.00" fill="#000000">{98.0 // 0.88}</text>
</g>
<!-- 7 -->
<g id="node4" class="node">
<title>7</title>
<ellipse fill="none" stroke="#000000" cx="2153.0115" cy="-373.2" rx="27" ry="18"/>
<text text-anchor="middle" x="2153.0115" y="-369" font-family="Times,serif" font-size="14.00" fill="#000000">7</text>
</g>
<!-- 0&#45;&#45;7 -->
<g id="edge3" class="edge">
<title>0--7</title>
<path fill="none" stroke="#000000" d="M1972.0824,-444.3139C1981.5836,-432.6807 1995.4305,-418.0273 2010.7931,-409.2 2047.4517,-388.1362 2096.3674,-379.2525 2126.2305,-375.6096"/>
<text text-anchor="middle" x="2049.6207" y="-413.4" font-family="Times,serif" font-size="14.00" fill="#000000">{97.0 // 0.86}</text>
</g>
<!-- 8 -->
<g id="node5" class="node">
<title>8</title>
<ellipse fill="none" stroke="#000000" cx="2653.0115" cy="-373.2" rx="27" ry="18"/>
<text text-anchor="middle" x="2653.0115" y="-369" font-family="Times,serif" font-size="14.00" fill="#000000">8</text>
</g>
<!-- 0&#45;&#45;8 -->
<g id="edge4" class="edge">
<title>0--8</title>
<path fill="none" stroke="#000000" d="M1998.9162,-449.3934C2007.1395,-447.2367 2015.7972,-445.2815 2024.0115,-444 2074.2213,-436.1669 2433.906,-445.0644 2481.0115,-426 2491.3931,-421.7984 2489.8606,-414.3744 2499.7931,-409.2 2540.7479,-387.8645 2594.4031,-379.0095 2626.1419,-375.455"/>
<text text-anchor="middle" x="2537.6207" y="-413.4" font-family="Times,serif" font-size="14.00" fill="#000000">{96.0 // 0.87}</text>
</g>
<!-- 9 -->
<g id="node6" class="node">
<title>9</title>
<ellipse fill="none" stroke="#000000" cx="1403.0115" cy="-373.2" rx="27" ry="18"/>
<text text-anchor="middle" x="1403.0115" y="-369" font-family="Times,serif" font-size="14.00" fill="#000000">9</text>
</g>
<!-- 0&#45;&#45;9 -->
<g id="edge5" class="edge">
<title>0--9</title>
<path fill="none" stroke="#000000" d="M1903.6505,-461.7516C1718.5856,-460.653 1131.4977,-454.8953 1103.7931,-426 1065.1411,-385.6867 1295.1486,-375.9391 1375.8178,-373.7739"/>
<text text-anchor="middle" x="1142.6207" y="-413.4" font-family="Times,serif" font-size="14.00" fill="#000000">{99.0 // 0.89}</text>
</g>
<!-- 10 -->
<g id="node11" class="node">
<title>10</title>
<ellipse fill="none" stroke="#000000" cx="2553.0115" cy="-284.4" rx="27" ry="18"/>
<text text-anchor="middle" x="2553.0115" y="-280.2" font-family="Times,serif" font-size="14.00" fill="#000000">10</text>
</g>
<!-- 5&#45;&#45;10 -->
<g id="edge26" class="edge">
<title>5--10</title>
<path fill="none" stroke="#000000" d="M1780.2213,-371.8545C1912.383,-365.319 2481.0115,-337.2 2481.0115,-337.2 2491.3719,-332.9463 2490.9611,-327.2866 2499.7931,-320.4 2510.5251,-312.032 2523.1147,-303.4637 2533.354,-296.7865"/>
<text text-anchor="middle" x="2537.6207" y="-324.6" font-family="Times,serif" font-size="14.00" fill="#000000">{85.0 // 0.75}</text>
</g>
<!-- 11 -->
<g id="node12" class="node">
<title>11</title>
<ellipse fill="none" stroke="#000000" cx="1303.0115" cy="-284.4" rx="27" ry="18"/>
<text text-anchor="middle" x="1303.0115" y="-280.2" font-family="Times,serif" font-size="14.00" fill="#000000">11</text>
</g>
<!-- 5&#45;&#45;11 -->
<g id="edge27" class="edge">
<title>5--11</title>
<path fill="none" stroke="#000000" d="M1725.7128,-371.6018C1671.2152,-368.4186 1545.0519,-361.0863 1439.0115,-355.2 1420.3901,-354.1663 1116.6223,-350.7365 1103.7931,-337.2 1098.6569,-331.7806 1099.0058,-326.13 1103.7931,-320.4 1125.4264,-294.5071 1226.6701,-287.2035 1275.9399,-285.1701"/>
<text text-anchor="middle" x="1142.6207" y="-324.6" font-family="Times,serif" font-size="14.00" fill="#000000">{88.0 // 0.78}</text>
</g>
<!-- 12 -->
<g id="node13" class="node">
<title>12</title>
<ellipse fill="none" stroke="#000000" cx="2053.0115" cy="-284.4" rx="27" ry="18"/>
<text text-anchor="middle" x="2053.0115" y="-280.2" font-family="Times,serif" font-size="14.00" fill="#000000">12</text>
</g>
<!-- 5&#45;&#45;12 -->
<g id="edge28" class="edge">
<title>5--12</title>
<path fill="none" stroke="#000000" d="M1779.936,-370.5597C1832.1148,-365.1806 1945.0359,-352.1849 1981.0115,-337.2 1984.0344,-335.9409 2014.4442,-313.3336 2034.7642,-298.1132"/>
<text text-anchor="middle" x="2043.6207" y="-324.6" font-family="Times,serif" font-size="14.00" fill="#000000">{86.0 // 0.76}</text>
</g>
<!-- 13 -->
<g id="node14" class="node">
<title>13</title>
<ellipse fill="none" stroke="#000000" cx="1653.0115" cy="-284.4" rx="27" ry="18"/>
<text text-anchor="middle" x="1653.0115" y="-280.2" font-family="Times,serif" font-size="14.00" fill="#000000">13</text>
</g>
<!-- 5&#45;&#45;13 -->
<g id="edge29" class="edge">
<title>5--13</title>
<path fill="none" stroke="#000000" d="M1725.8954,-371.2635C1664.3322,-366.5918 1518.209,-353.8479 1503.7931,-337.2 1498.9054,-331.5555 1499.1738,-326.2663 1503.7931,-320.4 1518.7548,-301.3994 1587.5073,-291.2453 1626.2562,-286.9445"/>
<text text-anchor="middle" x="1542.6207" y="-324.6" font-family="Times,serif" font-size="14.00" fill="#000000">{87.0 // 0.77}</text>
</g>
<!-- 14 -->
<g id="node15" class="node">
<title>14</title>
<ellipse fill="none" stroke="#000000" cx="3053.0115" cy="-284.4" rx="27" ry="18"/>
<text text-anchor="middle" x="3053.0115" y="-280.2" font-family="Times,serif" font-size="14.00" fill="#000000">14</text>
</g>
<!-- 5&#45;&#45;14 -->
<g id="edge30" class="edge">
<title>5--14</title>
<path fill="none" stroke="#000000" d="M1779.9423,-371.6044C1840.27,-368.0879 1990.8624,-359.6322 2117.0115,-355.2 2164.9923,-353.5142 2936.3427,-354.7982 2981.0115,-337.2 2991.4316,-333.0948 2990.9611,-327.2866 2999.7931,-320.4 3010.5251,-312.032 3023.1147,-303.4637 3033.354,-296.7865"/>
<text text-anchor="middle" x="3037.6207" y="-324.6" font-family="Times,serif" font-size="14.00" fill="#000000">{89.0 // 0.79}</text>
</g>
<!-- 6&#45;&#45;10 -->
<g id="edge31" class="edge">
<title>6--10</title>
<path fill="none" stroke="#000000" d="M3179.7411,-370.2487C3221.91,-364.6216 3296.3212,-350.1709 3268.0115,-320.4 3261.9694,-314.046 2710.5748,-290.9035 2580.3492,-285.523"/>
<text text-anchor="middle" x="3312.6207" y="-324.6" font-family="Times,serif" font-size="14.00" fill="#000000">{87.0 // 0.77}</text>
</g>
<!-- 6&#45;&#45;11 -->
<g id="edge32" class="edge">
<title>6--11</title>
<path fill="none" stroke="#000000" d="M3125.8219,-371.969C3054.3043,-368.7692 2855.0085,-360.0994 2689.0115,-355.2 2639.6219,-353.7423 1845.7705,-355.298 1799.7931,-337.2 1789.3719,-333.0979 1791.3162,-324.7868 1781.0115,-320.4 1760.1458,-311.5173 1428.1912,-291.6572 1330.1019,-285.957"/>
<text text-anchor="middle" x="1838.6207" y="-324.6" font-family="Times,serif" font-size="14.00" fill="#000000">{86.0 // 0.76}</text>
</g>
<!-- 6&#45;&#45;12 -->
<g id="edge33" class="edge">
<title>6--12</title>
<path fill="none" stroke="#000000" d="M3125.978,-371.4853C3055.0234,-366.8137 2864.7502,-353.1393 2803.7931,-337.2 2785.6201,-332.448 2783.3024,-324.676 2765.0115,-320.4 2731.1154,-312.4758 2206.7993,-290.6717 2080.3135,-285.5072"/>
<text text-anchor="middle" x="2841.6207" y="-324.6" font-family="Times,serif" font-size="14.00" fill="#000000">{88.0 // 0.78}</text>
</g>
<!-- 6&#45;&#45;13 -->
<g id="edge34" class="edge">
<title>6--13</title>
<path fill="none" stroke="#000000" d="M3125.7595,-372.112C2980.6022,-366.3092 2304.6971,-339.1927 2299.7931,-337.2 2289.4175,-332.9839 2291.3551,-324.6943 2281.0115,-320.4 2266.9227,-314.5508 1798.7659,-291.4753 1680.125,-285.7105"/>
<text text-anchor="middle" x="2337.6207" y="-324.6" font-family="Times,serif" font-size="14.00" fill="#000000">{85.0 // 0.75}</text>
</g>
<!-- 6&#45;&#45;14 -->
<g id="edge35" class="edge">
<title>6--14</title>
<path fill="none" stroke="#000000" d="M3179.9617,-370.8948C3237.4721,-365.703 3368.0601,-352.3569 3381.0115,-337.2 3385.8621,-331.5235 3385.9949,-325.9603 3381.0115,-320.4 3361.0342,-298.1101 3155.0578,-288.2207 3080.0992,-285.3408"/>
<text text-anchor="middle" x="3422.6207" y="-324.6" font-family="Times,serif" font-size="14.00" fill="#000000">{87.0 // 0.77}</text>
</g>
<!-- 7&#45;&#45;10 -->
<g id="edge36" class="edge">
<title>7--10</title>
<path fill="none" stroke="#000000" d="M2180.0288,-372.9993C2269.7783,-372.0553 2553.8527,-366.7392 2581.0115,-337.2 2591.2646,-326.0483 2580.7156,-310.443 2569.757,-299.0911"/>
<text text-anchor="middle" x="2623.6207" y="-324.6" font-family="Times,serif" font-size="14.00" fill="#000000">{88.0 // 0.78}</text>
</g>
<!-- 7&#45;&#45;11 -->
<g id="edge37" class="edge">
<title>7--11</title>
<path fill="none" stroke="#000000" d="M2126.0773,-371.6958C2065.7427,-368.364 1915.1371,-360.2577 1789.0115,-355.2 1756.5101,-353.8967 1226.4372,-360.5513 1203.7931,-337.2 1179.0707,-311.7054 1239.6486,-295.7741 1276.736,-288.6941"/>
<text text-anchor="middle" x="1242.6207" y="-324.6" font-family="Times,serif" font-size="14.00" fill="#000000">{89.0 // 0.79}</text>
</g>
<!-- 7&#45;&#45;12 -->
<g id="edge38" class="edge">
<title>7--12</title>
<path fill="none" stroke="#000000" d="M2133.7246,-360.261C2124.3917,-353.7111 2113.1997,-345.4203 2103.7931,-337.2 2090.5772,-325.6508 2076.8532,-311.21 2067.0092,-300.3512"/>
<text text-anchor="middle" x="2141.6207" y="-324.6" font-family="Times,serif" font-size="14.00" fill="#000000">{86.0 // 0.76}</text>
</g>
<!-- 7&#45;&#45;13 -->
<g id="edge39" class="edge">
<title>7--13</title>
<path fill="none" stroke="#000000" d="M2125.8986,-371.9232C2016.4794,-366.7081 1612.8257,-346.8441 1603.7931,-337.2 1590.1724,-322.6572 1612.4575,-305.8113 1631.301,-295.1332"/>
<text text-anchor="middle" x="1642.6207" y="-324.6" font-family="Times,serif" font-size="14.00" fill="#000000">{87.0 // 0.77}</text>
</g>
<!-- 7&#45;&#45;14 -->
<g id="edge40" class="edge">
<title>7--14</title>
<path fill="none" stroke="#000000" d="M2180.0326,-372.1518C2332.7533,-366.2273 3081.0115,-337.2 3081.0115,-337.2 3091.6575,-326.133 3080.6357,-310.215 3069.4412,-298.7538"/>
<text text-anchor="middle" x="3123.6207" y="-324.6" font-family="Times,serif" font-size="14.00" fill="#000000">{85.0 // 0.75}</text>
</g>
<!-- 8&#45;&#45;10 -->
<g id="edge41" class="edge">
<title>8--10</title>
<path fill="none" stroke="#000000" d="M2669.5809,-358.563C2680.0465,-347.5272 2690.0337,-332.3097 2681.0115,-320.4 2668.8146,-304.2994 2613.4787,-293.3885 2579.6825,-288.0959"/>
<text text-anchor="middle" x="2722.6207" y="-324.6" font-family="Times,serif" font-size="14.00" fill="#000000">{86.0 // 0.76}</text>
</g>
<!-- 8&#45;&#45;11 -->
<g id="edge42" class="edge">
<title>8--11</title>
<path fill="none" stroke="#000000" d="M2625.8217,-371.9752C2554.3037,-368.7906 2355.0069,-360.154 2189.0115,-355.2 2165.0942,-354.4862 1347.8546,-350.2416 1327.7931,-337.2 1315.9073,-329.4733 1309.6101,-314.4066 1306.3437,-302.339"/>
<text text-anchor="middle" x="1366.6207" y="-324.6" font-family="Times,serif" font-size="14.00" fill="#000000">{87.0 // 0.77}</text>
</g>
<!-- 8&#45;&#45;12 -->
<g id="edge43" class="edge">
<title>8--12</title>
<path fill="none" stroke="#000000" d="M2625.8534,-372.9634C2540.9965,-371.9222 2281.8442,-366.373 2203.7931,-337.2 2192.0088,-332.7954 2192.3133,-325.9263 2181.0115,-320.4 2147.8308,-304.1754 2106.126,-294.1691 2079.5134,-288.9459"/>
<text text-anchor="middle" x="2241.6207" y="-324.6" font-family="Times,serif" font-size="14.00" fill="#000000">{89.0 // 0.79}</text>
</g>
<!-- 8&#45;&#45;13 -->
<g id="edge44" class="edge">
<title>8--13</title>
<path fill="none" stroke="#000000" d="M2625.8165,-372.1289C2554.2859,-369.3151 2354.9614,-361.4969 2189.0115,-355.2 2135.1001,-353.1543 1753.0329,-359.2471 1703.7931,-337.2 1694.739,-333.146 1677.8625,-314.4262 1666.0592,-300.4199"/>
<text text-anchor="middle" x="1742.6207" y="-324.6" font-family="Times,serif" font-size="14.00" fill="#000000">{88.0 // 0.78}</text>
</g>
<!-- 8&#45;&#45;14 -->
<g id="edge45" class="edge">
<title>8--14</title>
<path fill="none" stroke="#000000" d="M2680.0161,-372.3714C2785.3606,-369.0102 3163.7439,-355.685 3181.0115,-337.2 3212.2717,-303.7358 3126.1286,-290.838 3080.0011,-286.4287"/>
<text text-anchor="middle" x="3225.6207" y="-324.6" font-family="Times,serif" font-size="14.00" fill="#000000">{86.0 // 0.76}</text>
</g>
<!-- 9&#45;&#45;10 -->
<g id="edge46" class="edge">
<title>9--10</title>
<path fill="none" stroke="#000000" d="M1429.8796,-371.3858C1484.1263,-367.7837 1610.6296,-359.6901 1717.0115,-355.2 1753.8811,-353.6438 2346.7201,-350.8341 2381.0115,-337.2 2391.4187,-333.0622 2389.8606,-325.5744 2399.7931,-320.4 2440.7479,-299.0645 2494.4031,-290.2095 2526.1419,-286.655"/>
<text text-anchor="middle" x="2437.6207" y="-324.6" font-family="Times,serif" font-size="14.00" fill="#000000">{89.0 // 0.79}</text>
</g>
<!-- 9&#45;&#45;11 -->
<g id="edge47" class="edge">
<title>9--11</title>
<path fill="none" stroke="#000000" d="M1375.7279,-372.8199C1289.7813,-371.3429 1028.8505,-364.6186 1003.7931,-337.2 966.1168,-295.9733 1195.4859,-286.8234 1275.9052,-284.892"/>
<text text-anchor="middle" x="1042.6207" y="-324.6" font-family="Times,serif" font-size="14.00" fill="#000000">{85.0 // 0.75}</text>
</g>
<!-- 9&#45;&#45;12 -->
<g id="edge48" class="edge">
<title>9--12</title>
<path fill="none" stroke="#000000" d="M1430.1019,-371.643C1528.1912,-365.9428 1860.1458,-346.0827 1881.0115,-337.2 1891.3162,-332.8132 1889.8606,-325.5744 1899.7931,-320.4 1940.7479,-299.0645 1994.4031,-290.2095 2026.1419,-286.655"/>
<text text-anchor="middle" x="1938.6207" y="-324.6" font-family="Times,serif" font-size="14.00" fill="#000000">{86.0 // 0.76}</text>
</g>
<!-- 9&#45;&#45;13 -->
<g id="edge49" class="edge">
<title>9--13</title>
<path fill="none" stroke="#000000" d="M1404.0303,-355.1355C1405.6813,-343.4894 1409.7837,-328.9705 1419.7931,-320.4 1450.3683,-294.2203 1571.4125,-287.0202 1626.0275,-285.0875"/>
<text text-anchor="middle" x="1458.6207" y="-324.6" font-family="Times,serif" font-size="14.00" fill="#000000">{87.0 // 0.77}</text>
</g>
<!-- 9&#45;&#45;14 -->
<g id="edge50" class="edge">
<title>9--14</title>
<path fill="none" stroke="#000000" d="M1429.8755,-371.2804C1484.1147,-367.4886 1610.6053,-359.0709 1717.0115,-355.2 1781.6432,-352.8488 2820.7751,-360.7448 2881.0115,-337.2 2891.4426,-333.1228 2889.8606,-325.5744 2899.7931,-320.4 2940.7479,-299.0645 2994.4031,-290.2095 3026.1419,-286.655"/>
<text text-anchor="middle" x="2937.6207" y="-324.6" font-family="Times,serif" font-size="14.00" fill="#000000">{88.0 // 0.78}</text>
</g>
<!-- 1 -->
<g id="node7" class="node">
<title>1</title>
<ellipse fill="none" stroke="#000000" cx="2088.0115" cy="-462" rx="55.097" ry="18"/>
<text text-anchor="middle" x="2088.0115" y="-457.8" font-family="Times,serif" font-size="14.00" fill="#000000">SERVER 1</text>
</g>
<!-- 1&#45;&#45;5 -->
<g id="edge6" class="edge">
<title>1--5</title>
<path fill="none" stroke="#000000" d="M2048.1033,-449.4162C2039.8803,-447.2577 2031.2236,-445.2961 2023.0115,-444 1999.9852,-440.3659 1619.9193,-442.8335 1603.7931,-426 1566.6288,-387.2057 1673.2505,-376.8709 1725.7217,-374.1529"/>
<text text-anchor="middle" x="1642.6207" y="-413.4" font-family="Times,serif" font-size="14.00" fill="#000000">{97.0 // 0.88}</text>
</g>
<!-- 1&#45;&#45;6 -->
<g id="edge7" class="edge">
<title>1--6</title>
<path fill="none" stroke="#000000" d="M2127.5495,-449.3556C2135.8775,-447.1723 2144.6689,-445.2163 2153.0115,-444 2204.0373,-436.5608 3033.0217,-444.8667 3081.0115,-426 3091.4345,-421.9023 3090.9611,-416.0866 3099.7931,-409.2 3110.5251,-400.832 3123.1147,-392.2637 3133.354,-385.5865"/>
<text text-anchor="middle" x="3137.6207" y="-413.4" font-family="Times,serif" font-size="14.00" fill="#000000">{96.0 // 0.87}</text>
</g>
<!-- 1&#45;&#45;7 -->
<g id="edge8" class="edge">
<title>1--7</title>
<path fill="none" stroke="#000000" d="M2088.7702,-443.5532C2089.9905,-432.7503 2092.9213,-419.2923 2099.7931,-409.2 2107.3896,-398.0435 2119.6942,-389.3908 2130.5593,-383.3675"/>
<text text-anchor="middle" x="2137.6207" y="-413.4" font-family="Times,serif" font-size="14.00" fill="#000000">{98.0 // 0.89}</text>
</g>
<!-- 1&#45;&#45;8 -->
<g id="edge9" class="edge">
<title>1--8</title>
<path fill="none" stroke="#000000" d="M2127.9189,-449.4105C2136.142,-447.2525 2144.7989,-445.2924 2153.0115,-444 2247.0494,-429.201 2492.8169,-461.8306 2581.0115,-426 2591.3875,-421.7846 2590.9611,-416.0866 2599.7931,-409.2 2610.5251,-400.832 2623.1147,-392.2637 2633.354,-385.5865"/>
<text text-anchor="middle" x="2637.6207" y="-413.4" font-family="Times,serif" font-size="14.00" fill="#000000">{95.0 // 0.86}</text>
</g>
<!-- 1&#45;&#45;9 -->
<g id="edge10" class="edge">
<title>1--9</title>
<path fill="none" stroke="#000000" d="M2048.4711,-449.3722C2040.1433,-447.1877 2031.3525,-445.227 2023.0115,-444 2000.4923,-440.6872 1219.7102,-442.2707 1203.7931,-426 1198.5717,-420.6626 1199.0058,-414.93 1203.7931,-409.2 1225.4264,-383.3071 1326.6701,-376.0035 1375.9399,-373.9701"/>
<text text-anchor="middle" x="1242.6207" y="-413.4" font-family="Times,serif" font-size="14.00" fill="#000000">{97.0 // 0.85}</text>
</g>
<!-- 2 -->
<g id="node8" class="node">
<title>2</title>
<ellipse fill="none" stroke="#000000" cx="2217.0115" cy="-462" rx="55.097" ry="18"/>
<text text-anchor="middle" x="2217.0115" y="-457.8" font-family="Times,serif" font-size="14.00" fill="#000000">SERVER 2</text>
</g>
<!-- 2&#45;&#45;5 -->
<g id="edge11" class="edge">
<title>2--5</title>
<path fill="none" stroke="#000000" d="M2177.1061,-449.3983C2168.8829,-447.2413 2160.2254,-445.2847 2152.0115,-444 2127.3898,-440.1491 1721.0578,-443.972 1703.7931,-426 1689.9894,-411.6308 1712.3188,-394.7428 1731.2222,-384.0079"/>
<text text-anchor="middle" x="1742.6207" y="-413.4" font-family="Times,serif" font-size="14.00" fill="#000000">{98.0 // 0.87}</text>
</g>
<!-- 2&#45;&#45;6 -->
<g id="edge12" class="edge">
<title>2--6</title>
<path fill="none" stroke="#000000" d="M2256.5501,-449.3596C2264.878,-447.176 2273.6693,-445.2189 2282.0115,-444 2306.7263,-440.3888 3163.5276,-443.8375 3181.0115,-426 3191.7608,-415.0333 3180.7228,-399.0996 3169.4964,-387.6074"/>
<text text-anchor="middle" x="3223.6207" y="-413.4" font-family="Times,serif" font-size="14.00" fill="#000000">{99.0 // 0.88}</text>
</g>
<!-- 2&#45;&#45;7 -->
<g id="edge13" class="edge">
<title>2--7</title>
<path fill="none" stroke="#000000" d="M2205.2841,-444.2078C2198.3749,-433.8771 2189.3749,-420.6771 2181.0115,-409.2 2176.162,-402.5449 2170.6316,-395.3557 2165.7739,-389.1646"/>
<text text-anchor="middle" x="2230.6207" y="-413.4" font-family="Times,serif" font-size="14.00" fill="#000000">{96.0 // 0.86}</text>
</g>
<!-- 2&#45;&#45;8 -->
<g id="edge14" class="edge">
<title>2--8</title>
<path fill="none" stroke="#000000" d="M2256.922,-449.4301C2265.1448,-447.2706 2273.8009,-445.305 2282.0115,-444 2303.9257,-440.5171 2665.679,-442.0398 2681.0115,-426 2691.6225,-414.8995 2680.6062,-398.9867 2669.4226,-387.5359"/>
<text text-anchor="middle" x="2723.6207" y="-413.4" font-family="Times,serif" font-size="14.00" fill="#000000">{97.0 // 0.89}</text>
</g>
<!-- 2&#45;&#45;9 -->
<g id="edge15" class="edge">
<title>2--9</title>
<path fill="none" stroke="#000000" d="M2177.4718,-449.3674C2169.144,-447.1832 2160.353,-445.2239 2152.0115,-444 2128.6943,-440.5788 1320.2797,-442.8402 1303.7931,-426 1278.9495,-400.6235 1339.5786,-384.6424 1376.7056,-377.5237"/>
<text text-anchor="middle" x="1342.6207" y="-413.4" font-family="Times,serif" font-size="14.00" fill="#000000">{95.0 // 0.88}</text>
</g>
<!-- 3 -->
<g id="node9" class="node">
<title>3</title>
<ellipse fill="none" stroke="#000000" cx="2346.0115" cy="-462" rx="55.097" ry="18"/>
<text text-anchor="middle" x="2346.0115" y="-457.8" font-family="Times,serif" font-size="14.00" fill="#000000">SERVER 3</text>
</g>
<!-- 3&#45;&#45;5 -->
<g id="edge16" class="edge">
<title>3--5</title>
<path fill="none" stroke="#000000" d="M2306.1086,-449.3827C2297.8851,-447.2268 2289.2269,-445.2747 2281.0115,-444 2228.5769,-435.8645 1852.2155,-447.6991 1803.7931,-426 1794.7403,-421.9432 1777.8635,-403.224 1766.0598,-389.2186"/>
<text text-anchor="middle" x="1842.6207" y="-413.4" font-family="Times,serif" font-size="14.00" fill="#000000">{96.0 // 0.86}</text>
</g>
<!-- 3&#45;&#45;6 -->
<g id="edge17" class="edge">
<title>3--6</title>
<path fill="none" stroke="#000000" d="M2401.2281,-460.0001C2601.6424,-452.7259 3279.0921,-427.9948 3281.0115,-426 3312.7634,-393.002 3226.3802,-379.8766 3180.0976,-375.3202"/>
<text text-anchor="middle" x="3325.6207" y="-413.4" font-family="Times,serif" font-size="14.00" fill="#000000">{97.0 // 0.87}</text>
</g>
<!-- 3&#45;&#45;7 -->
<g id="edge18" class="edge">
<title>3--7</title>
<path fill="none" stroke="#000000" d="M2326.4198,-445.0286C2312.3506,-433.5678 2292.5043,-418.829 2273.0115,-409.2 2242.3948,-394.0759 2204.1978,-383.9624 2179.2335,-378.402"/>
<text text-anchor="middle" x="2338.6207" y="-413.4" font-family="Times,serif" font-size="14.00" fill="#000000">{99.0 // 0.88}</text>
</g>
<!-- 3&#45;&#45;8 -->
<g id="edge19" class="edge">
<title>3--8</title>
<path fill="none" stroke="#000000" d="M2401.4981,-461.5082C2512.9992,-459.9411 2755.7973,-453.3871 2781.0115,-426 2812.0284,-392.3102 2726.0041,-379.5225 2679.9533,-375.1843"/>
<text text-anchor="middle" x="2825.6207" y="-413.4" font-family="Times,serif" font-size="14.00" fill="#000000">{98.0 // 0.86}</text>
</g>
<!-- 3&#45;&#45;9 -->
<g id="edge20" class="edge">
<title>3--9</title>
<path fill="none" stroke="#000000" d="M2306.4721,-449.3653C2298.1443,-447.1813 2289.3532,-445.2226 2281.0115,-444 2233.6615,-437.0603 1458.1215,-454.6552 1419.7931,-426 1409.1622,-418.052 1405.1162,-403.3299 1403.645,-391.4466"/>
<text text-anchor="middle" x="1458.6207" y="-413.4" font-family="Times,serif" font-size="14.00" fill="#000000">{96.0 // 0.89}</text>
</g>
<!-- 4 -->
<g id="node10" class="node">
<title>4</title>
<ellipse fill="none" stroke="#000000" cx="2903.0115" cy="-462" rx="55.097" ry="18"/>
<text text-anchor="middle" x="2903.0115" y="-457.8" font-family="Times,serif" font-size="14.00" fill="#000000">SERVER 4</text>
</g>
<!-- 4&#45;&#45;5 -->
<g id="edge21" class="edge">
<title>4--5</title>
<path fill="none" stroke="#000000" d="M2848.012,-460.0716C2726,-455.5061 2440.2206,-443.1206 2399.7931,-426 2389.4802,-421.6326 2391.3551,-413.4943 2381.0115,-409.2 2366.9227,-403.3508 1898.7659,-380.2753 1780.125,-374.5105"/>
<text text-anchor="middle" x="2437.6207" y="-413.4" font-family="Times,serif" font-size="14.00" fill="#000000">{99.0 // 0.89}</text>
</g>
<!-- 4&#45;&#45;6 -->
<g id="edge22" class="edge">
<title>4--6</title>
<path fill="none" stroke="#000000" d="M2958.2597,-460.5828C3099.3774,-456.6951 3463.2723,-444.8785 3481.0115,-426 3486.1245,-420.5586 3485.9949,-414.7603 3481.0115,-409.2 3461.0342,-386.9101 3255.0578,-377.0207 3180.0992,-374.1408"/>
<text text-anchor="middle" x="3522.6207" y="-413.4" font-family="Times,serif" font-size="14.00" fill="#000000">{95.0 // 0.88}</text>
</g>
<!-- 4&#45;&#45;7 -->
<g id="edge23" class="edge">
<title>4--7</title>
<path fill="none" stroke="#000000" d="M2896.2057,-443.9964C2890.6029,-431.8983 2881.3895,-416.8218 2868.0115,-409.2 2852.7914,-400.5286 2309.6069,-379.2009 2180.3923,-374.242"/>
<text text-anchor="middle" x="2923.6207" y="-413.4" font-family="Times,serif" font-size="14.00" fill="#000000">{96.0 // 0.87}</text>
</g>
<!-- 4&#45;&#45;8 -->
<g id="edge24" class="edge">
<title>4--8</title>
<path fill="none" stroke="#000000" d="M2958.2103,-459.8328C3080.9414,-454.7467 3366.8101,-441.3112 3381.0115,-426 3386.0891,-420.5256 3386.1592,-414.6085 3381.0115,-409.2 3374.8433,-402.7192 2810.9494,-379.5747 2679.9714,-374.283"/>
<text text-anchor="middle" x="3422.6207" y="-413.4" font-family="Times,serif" font-size="14.00" fill="#000000">{97.0 // 0.86}</text>
</g>
<!-- 4&#45;&#45;9 -->
<g id="edge25" class="edge">
<title>4--9</title>
<path fill="none" stroke="#000000" d="M2847.9295,-459.9781C2756.8195,-456.6362 2568.9972,-449.7572 2410.0115,-444 2354.3212,-441.9834 1962.1948,-441.9293 1908.7931,-426 1894.9657,-421.8754 1894.7553,-413.5953 1881.0115,-409.2 1838.0591,-395.4636 1525.1784,-379.1807 1430.2461,-374.5106"/>
<text text-anchor="middle" x="1947.6207" y="-413.4" font-family="Times,serif" font-size="14.00" fill="#000000">{98.0 // 0.85}</text>
</g>
<!-- 15 -->
<g id="node16" class="node">
<title>15</title>
<ellipse fill="none" stroke="#000000" cx="1553.0115" cy="-195.6" rx="27" ry="18"/>
<text text-anchor="middle" x="1553.0115" y="-191.4" font-family="Times,serif" font-size="14.00" fill="#000000">15</text>
</g>
<!-- 10&#45;&#45;15 -->
<g id="edge51" class="edge">
<title>10--15</title>
<path fill="none" stroke="#000000" d="M2525.8165,-283.3289C2454.2859,-280.5151 2254.9614,-272.6969 2089.0115,-266.4 2035.1001,-264.3543 1653.0329,-270.4471 1603.7931,-248.4 1594.739,-244.346 1577.8625,-225.6262 1566.0592,-211.6199"/>
<text text-anchor="middle" x="1642.6207" y="-235.8" font-family="Times,serif" font-size="14.00" fill="#000000">{65.0 // 0.55}</text>
</g>
<!-- 16 -->
<g id="node17" class="node">
<title>16</title>
<ellipse fill="none" stroke="#000000" cx="2953.0115" cy="-195.6" rx="27" ry="18"/>
<text text-anchor="middle" x="2953.0115" y="-191.4" font-family="Times,serif" font-size="14.00" fill="#000000">16</text>
</g>
<!-- 10&#45;&#45;16 -->
<g id="edge52" class="edge">
<title>10--16</title>
<path fill="none" stroke="#000000" d="M2580.0161,-283.5714C2685.3606,-280.2102 3063.7439,-266.885 3081.0115,-248.4 3112.2717,-214.9358 3026.1286,-202.038 2980.0011,-197.6287"/>
<text text-anchor="middle" x="3125.6207" y="-235.8" font-family="Times,serif" font-size="14.00" fill="#000000">{68.0 // 0.58}</text>
</g>
<!-- 17 -->
<g id="node18" class="node">
<title>17</title>
<ellipse fill="none" stroke="#000000" cx="1203.0115" cy="-195.6" rx="27" ry="18"/>
<text text-anchor="middle" x="1203.0115" y="-191.4" font-family="Times,serif" font-size="14.00" fill="#000000">17</text>
</g>
<!-- 10&#45;&#45;17 -->
<g id="edge53" class="edge">
<title>10--17</title>
<path fill="none" stroke="#000000" d="M2525.8217,-283.1752C2454.3037,-279.9906 2255.0069,-271.354 2089.0115,-266.4 2065.0942,-265.6862 1247.8546,-261.4416 1227.7931,-248.4 1215.9073,-240.6733 1209.6101,-225.6066 1206.3437,-213.539"/>
<text text-anchor="middle" x="1266.6207" y="-235.8" font-family="Times,serif" font-size="14.00" fill="#000000">{66.0 // 0.56}</text>
</g>
<!-- 18 -->
<g id="node19" class="node">
<title>18</title>
<ellipse fill="none" stroke="#000000" cx="1953.0115" cy="-195.6" rx="27" ry="18"/>
<text text-anchor="middle" x="1953.0115" y="-191.4" font-family="Times,serif" font-size="14.00" fill="#000000">18</text>
</g>
<!-- 10&#45;&#45;18 -->
<g id="edge54" class="edge">
<title>10--18</title>
<path fill="none" stroke="#000000" d="M2525.8534,-284.1634C2440.9965,-283.1222 2181.8442,-277.573 2103.7931,-248.4 2092.0088,-243.9954 2092.3133,-237.1263 2081.0115,-231.6 2047.8308,-215.3754 2006.126,-205.3691 1979.5134,-200.1459"/>
<text text-anchor="middle" x="2141.6207" y="-235.8" font-family="Times,serif" font-size="14.00" fill="#000000">{67.0 // 0.57}</text>
</g>
<!-- 19 -->
<g id="node20" class="node">
<title>19</title>
<ellipse fill="none" stroke="#000000" cx="2453.0115" cy="-195.6" rx="27" ry="18"/>
<text text-anchor="middle" x="2453.0115" y="-191.4" font-family="Times,serif" font-size="14.00" fill="#000000">19</text>
</g>
<!-- 10&#45;&#45;19 -->
<g id="edge55" class="edge">
<title>10--19</title>
<path fill="none" stroke="#000000" d="M2569.5809,-269.763C2580.0465,-258.7272 2590.0337,-243.5097 2581.0115,-231.6 2568.8146,-215.4994 2513.4787,-204.5885 2479.6825,-199.2959"/>
<text text-anchor="middle" x="2622.6207" y="-235.8" font-family="Times,serif" font-size="14.00" fill="#000000">{69.0 // 0.59}</text>
</g>
<!-- 11&#45;&#45;15 -->
<g id="edge56" class="edge">
<title>11--15</title>
<path fill="none" stroke="#000000" d="M1304.0303,-266.3355C1305.6813,-254.6894 1309.7837,-240.1705 1319.7931,-231.6 1350.3683,-205.4203 1471.4125,-198.2202 1526.0275,-196.2875"/>
<text text-anchor="middle" x="1358.6207" y="-235.8" font-family="Times,serif" font-size="14.00" fill="#000000">{67.0 // 0.57}</text>
</g>
<!-- 11&#45;&#45;16 -->
<g id="edge57" class="edge">
<title>11--16</title>
<path fill="none" stroke="#000000" d="M1329.8755,-282.4804C1384.1147,-278.6886 1510.6053,-270.2709 1617.0115,-266.4 1681.6432,-264.0488 2720.7751,-271.9448 2781.0115,-248.4 2791.4426,-244.3228 2789.8606,-236.7744 2799.7931,-231.6 2840.7479,-210.2645 2894.4031,-201.4095 2926.1419,-197.855"/>
<text text-anchor="middle" x="2837.6207" y="-235.8" font-family="Times,serif" font-size="14.00" fill="#000000">{66.0 // 0.56}</text>
</g>
<!-- 11&#45;&#45;17 -->
<g id="edge58" class="edge">
<title>11--17</title>
<path fill="none" stroke="#000000" d="M1275.7279,-284.0199C1189.7813,-282.5429 928.8505,-275.8186 903.7931,-248.4 866.1168,-207.1733 1095.4859,-198.0234 1175.9052,-196.092"/>
<text text-anchor="middle" x="942.6207" y="-235.8" font-family="Times,serif" font-size="14.00" fill="#000000">{68.0 // 0.58}</text>
</g>
<!-- 11&#45;&#45;18 -->
<g id="edge59" class="edge">
<title>11--18</title>
<path fill="none" stroke="#000000" d="M1330.1019,-282.843C1428.1912,-277.1428 1760.1458,-257.2827 1781.0115,-248.4 1791.3162,-244.0132 1789.8606,-236.7744 1799.7931,-231.6 1840.7479,-210.2645 1894.4031,-201.4095 1926.1419,-197.855"/>
<text text-anchor="middle" x="1838.6207" y="-235.8" font-family="Times,serif" font-size="14.00" fill="#000000">{65.0 // 0.55}</text>
</g>
<!-- 11&#45;&#45;19 -->
<g id="edge60" class="edge">
<title>11--19</title>
<path fill="none" stroke="#000000" d="M1329.8796,-282.5858C1384.1263,-278.9837 1510.6296,-270.8901 1617.0115,-266.4 1653.8811,-264.8438 2246.7201,-262.0341 2281.0115,-248.4 2291.4187,-244.2622 2289.8606,-236.7744 2299.7931,-231.6 2340.7479,-210.2645 2394.4031,-201.4095 2426.1419,-197.855"/>
<text text-anchor="middle" x="2337.6207" y="-235.8" font-family="Times,serif" font-size="14.00" fill="#000000">{67.0 // 0.57}</text>
</g>
<!-- 12&#45;&#45;15 -->
<g id="edge61" class="edge">
<title>12--15</title>
<path fill="none" stroke="#000000" d="M2025.8986,-283.1232C1916.4794,-277.9081 1512.8257,-258.0441 1503.7931,-248.4 1490.1724,-233.8572 1512.4575,-217.0113 1531.301,-206.3332"/>
<text text-anchor="middle" x="1542.6207" y="-235.8" font-family="Times,serif" font-size="14.00" fill="#000000">{68.0 // 0.58}</text>
</g>
<!-- 12&#45;&#45;16 -->
<g id="edge62" class="edge">
<title>12--16</title>
<path fill="none" stroke="#000000" d="M2080.0326,-283.3518C2232.7533,-277.4273 2981.0115,-248.4 2981.0115,-248.4 2991.6575,-237.333 2980.6357,-221.415 2969.4412,-209.9538"/>
<text text-anchor="middle" x="3023.6207" y="-235.8" font-family="Times,serif" font-size="14.00" fill="#000000">{69.0 // 0.59}</text>
</g>
<!-- 12&#45;&#45;17 -->
<g id="edge63" class="edge">
<title>12--17</title>
<path fill="none" stroke="#000000" d="M2026.0773,-282.8958C1965.7427,-279.564 1815.1371,-271.4577 1689.0115,-266.4 1656.5101,-265.0967 1126.4372,-271.7513 1103.7931,-248.4 1079.0707,-222.9054 1139.6486,-206.9741 1176.736,-199.8941"/>
<text text-anchor="middle" x="1142.6207" y="-235.8" font-family="Times,serif" font-size="14.00" fill="#000000">{66.0 // 0.56}</text>
</g>
<!-- 12&#45;&#45;18 -->
<g id="edge64" class="edge">
<title>12--18</title>
<path fill="none" stroke="#000000" d="M2033.7246,-271.461C2024.3917,-264.9111 2013.1997,-256.6203 2003.7931,-248.4 1990.5772,-236.8508 1976.8532,-222.41 1967.0092,-211.5512"/>
<text text-anchor="middle" x="2042.6207" y="-235.8" font-family="Times,serif" font-size="14.00" fill="#000000">{67.0 // 0.57}</text>
</g>
<!-- 12&#45;&#45;19 -->
<g id="edge65" class="edge">
<title>12--19</title>
<path fill="none" stroke="#000000" d="M2080.0288,-284.1993C2169.7783,-283.2553 2453.8527,-277.9392 2481.0115,-248.4 2491.2646,-237.2483 2480.7156,-221.643 2469.757,-210.2911"/>
<text text-anchor="middle" x="2523.6207" y="-235.8" font-family="Times,serif" font-size="14.00" fill="#000000">{65.0 // 0.55}</text>
</g>
<!-- 13&#45;&#45;15 -->
<g id="edge66" class="edge">
<title>13--15</title>
<path fill="none" stroke="#000000" d="M1625.8954,-282.4635C1564.3322,-277.7918 1418.209,-265.0479 1403.7931,-248.4 1398.9054,-242.7555 1399.1738,-237.4663 1403.7931,-231.6 1418.7548,-212.5994 1487.5073,-202.4453 1526.2562,-198.1445"/>
<text text-anchor="middle" x="1442.6207" y="-235.8" font-family="Times,serif" font-size="14.00" fill="#000000">{66.0 // 0.56}</text>
</g>
<!-- 13&#45;&#45;16 -->
<g id="edge67" class="edge">
<title>13--16</title>
<path fill="none" stroke="#000000" d="M1679.9423,-282.8044C1740.27,-279.2879 1890.8624,-270.8322 2017.0115,-266.4 2064.9923,-264.7142 2836.3427,-265.9982 2881.0115,-248.4 2891.4316,-244.2948 2890.9611,-238.4866 2899.7931,-231.6 2910.5251,-223.232 2923.1147,-214.6637 2933.354,-207.9865"/>
<text text-anchor="middle" x="2937.6207" y="-235.8" font-family="Times,serif" font-size="14.00" fill="#000000">{67.0 // 0.57}</text>
</g>
<!-- 13&#45;&#45;17 -->
<g id="edge68" class="edge">
<title>13--17</title>
<path fill="none" stroke="#000000" d="M1625.7128,-282.8018C1571.2152,-279.6186 1445.0519,-272.2863 1339.0115,-266.4 1320.3901,-265.3663 1016.6223,-261.9365 1003.7931,-248.4 998.6569,-242.9806 999.0058,-237.33 1003.7931,-231.6 1025.4264,-205.7071 1126.6701,-198.4035 1175.9399,-196.3701"/>
<text text-anchor="middle" x="1042.6207" y="-235.8" font-family="Times,serif" font-size="14.00" fill="#000000">{69.0 // 0.59}</text>
</g>
<!-- 13&#45;&#45;18 -->
<g id="edge69" class="edge">
<title>13--18</title>
<path fill="none" stroke="#000000" d="M1679.936,-281.7597C1732.1148,-276.3806 1845.0359,-263.3849 1881.0115,-248.4 1886.9856,-245.9116 1915.8052,-224.2006 1935.1217,-209.4055"/>
<text text-anchor="middle" x="1943.6207" y="-235.8" font-family="Times,serif" font-size="14.00" fill="#000000">{68.0 // 0.58}</text>
</g>
<!-- 13&#45;&#45;19 -->
<g id="edge70" class="edge">
<title>13--19</title>
<path fill="none" stroke="#000000" d="M1680.2213,-283.0545C1812.383,-276.519 2381.0115,-248.4 2381.0115,-248.4 2391.3719,-244.1463 2390.9611,-238.4866 2399.7931,-231.6 2410.5251,-223.232 2423.1147,-214.6637 2433.354,-207.9865"/>
<text text-anchor="middle" x="2437.6207" y="-235.8" font-family="Times,serif" font-size="14.00" fill="#000000">{66.0 // 0.56}</text>
</g>
<!-- 14&#45;&#45;15 -->
<g id="edge71" class="edge">
<title>14--15</title>
<path fill="none" stroke="#000000" d="M3025.7595,-283.312C2880.6022,-277.5092 2204.6971,-250.3927 2199.7931,-248.4 2189.4175,-244.1839 2191.3551,-235.8943 2181.0115,-231.6 2166.9227,-225.7508 1698.7659,-202.6753 1580.125,-196.9105"/>
<text text-anchor="middle" x="2237.6207" y="-235.8" font-family="Times,serif" font-size="14.00" fill="#000000">{69.0 // 0.59}</text>
</g>
<!-- 14&#45;&#45;16 -->
<g id="edge72" class="edge">
<title>14--16</title>
<path fill="none" stroke="#000000" d="M3079.9617,-282.0948C3137.4721,-276.903 3268.0601,-263.5569 3281.0115,-248.4 3285.8621,-242.7235 3285.9949,-237.1603 3281.0115,-231.6 3261.0342,-209.3101 3055.0578,-199.4207 2980.0992,-196.5408"/>
<text text-anchor="middle" x="3322.6207" y="-235.8" font-family="Times,serif" font-size="14.00" fill="#000000">{65.0 // 0.55}</text>
</g>
<!-- 14&#45;&#45;17 -->
<g id="edge73" class="edge">
<title>14--17</title>
<path fill="none" stroke="#000000" d="M3025.8219,-283.169C2954.3043,-279.9692 2755.0085,-271.2994 2589.0115,-266.4 2539.6219,-264.9423 1745.7705,-266.498 1699.7931,-248.4 1689.3719,-244.2979 1691.3162,-235.9868 1681.0115,-231.6 1660.1458,-222.7173 1328.1912,-202.8572 1230.1019,-197.157"/>
<text text-anchor="middle" x="1738.6207" y="-235.8" font-family="Times,serif" font-size="14.00" fill="#000000">{66.0 // 0.56}</text>
</g>
<!-- 14&#45;&#45;18 -->
<g id="edge74" class="edge">
<title>14--18</title>
<path fill="none" stroke="#000000" d="M3025.978,-282.6853C2955.0234,-278.0137 2764.7502,-264.3393 2703.7931,-248.4 2685.6201,-243.648 2683.3024,-235.876 2665.0115,-231.6 2631.1154,-223.6758 2106.7993,-201.8717 1980.3135,-196.7072"/>
<text text-anchor="middle" x="2741.6207" y="-235.8" font-family="Times,serif" font-size="14.00" fill="#000000">{67.0 // 0.57}</text>
</g>
<!-- 14&#45;&#45;19 -->
<g id="edge75" class="edge">
<title>14--19</title>
<path fill="none" stroke="#000000" d="M3079.7411,-281.4487C3121.91,-275.8216 3196.3212,-261.3709 3168.0115,-231.6 3161.9694,-225.246 2610.5748,-202.1035 2480.3492,-196.723"/>
<text text-anchor="middle" x="3212.6207" y="-235.8" font-family="Times,serif" font-size="14.00" fill="#000000">{68.0 // 0.58}</text>
</g>
<!-- 20 -->
<g id="node21" class="node">
<title>20</title>
<ellipse fill="none" stroke="#000000" cx="2803.0115" cy="-106.8" rx="27" ry="18"/>
<text text-anchor="middle" x="2803.0115" y="-102.6" font-family="Times,serif" font-size="14.00" fill="#000000">20</text>
</g>
<!-- 15&#45;&#45;20 -->
<g id="edge76" class="edge">
<title>15--20</title>
<path fill="none" stroke="#000000" d="M1579.9423,-194.0044C1640.27,-190.4879 1790.8624,-182.0322 1917.0115,-177.6 1941.0019,-176.7571 2761.1778,-173.123 2781.0115,-159.6 2792.4163,-151.824 2797.9222,-136.926 2800.5726,-124.9326"/>
<text text-anchor="middle" x="2832.6207" y="-147" font-family="Times,serif" font-size="14.00" fill="#000000">{85.0 // 0.75}</text>
</g>
<!-- 21 -->
<g id="node22" class="node">
<title>21</title>
<ellipse fill="none" stroke="#000000" cx="2303.0115" cy="-106.8" rx="27" ry="18"/>
<text text-anchor="middle" x="2303.0115" y="-102.6" font-family="Times,serif" font-size="14.00" fill="#000000">21</text>
</g>
<!-- 15&#45;&#45;21 -->
<g id="edge77" class="edge">
<title>15--21</title>
<path fill="none" stroke="#000000" d="M1580.2213,-194.2545C1712.383,-187.719 2281.0115,-159.6 2281.0115,-159.6 2292.3041,-151.6618 2297.8195,-136.7778 2300.5023,-124.8309"/>
<text text-anchor="middle" x="2332.6207" y="-147" font-family="Times,serif" font-size="14.00" fill="#000000">{88.0 // 0.78}</text>
</g>
<!-- 22 -->
<g id="node23" class="node">
<title>22</title>
<ellipse fill="none" stroke="#000000" cx="1103.0115" cy="-106.8" rx="27" ry="18"/>
<text text-anchor="middle" x="1103.0115" y="-102.6" font-family="Times,serif" font-size="14.00" fill="#000000">22</text>
</g>
<!-- 15&#45;&#45;22 -->
<g id="edge78" class="edge">
<title>15--22</title>
<path fill="none" stroke="#000000" d="M1525.7128,-194.0018C1471.2152,-190.8186 1345.0519,-183.4863 1239.0115,-177.6 1220.3901,-176.5663 916.6223,-173.1365 903.7931,-159.6 898.6569,-154.1806 899.0058,-148.53 903.7931,-142.8 925.4264,-116.9071 1026.6701,-109.6035 1075.9399,-107.5701"/>
<text text-anchor="middle" x="942.6207" y="-147" font-family="Times,serif" font-size="14.00" fill="#000000">{86.0 // 0.76}</text>
</g>
<!-- 23 -->
<g id="node24" class="node">
<title>23</title>
<ellipse fill="none" stroke="#000000" cx="1903.0115" cy="-106.8" rx="27" ry="18"/>
<text text-anchor="middle" x="1903.0115" y="-102.6" font-family="Times,serif" font-size="14.00" fill="#000000">23</text>
</g>
<!-- 15&#45;&#45;23 -->
<g id="edge79" class="edge">
<title>15--23</title>
<path fill="none" stroke="#000000" d="M1580.1926,-193.6205C1623.4525,-189.9586 1710.3024,-180.5084 1781.0115,-159.6 1798.6343,-154.389 1801.9478,-150.1451 1818.7931,-142.8 1839.4906,-133.7752 1863.139,-123.6859 1880.0965,-116.4897"/>
<text text-anchor="middle" x="1857.6207" y="-147" font-family="Times,serif" font-size="14.00" fill="#000000">{87.0 // 0.77}</text>
</g>
<!-- 24 -->
<g id="node25" class="node">
<title>24</title>
<ellipse fill="none" stroke="#000000" cx="1503.0115" cy="-106.8" rx="27" ry="18"/>
<text text-anchor="middle" x="1503.0115" y="-102.6" font-family="Times,serif" font-size="14.00" fill="#000000">24</text>
</g>
<!-- 15&#45;&#45;24 -->
<g id="edge80" class="edge">
<title>15--24</title>
<path fill="none" stroke="#000000" d="M1525.8954,-193.6635C1464.3322,-188.9918 1318.209,-176.2479 1303.7931,-159.6 1298.9054,-153.9555 1299.0058,-148.53 1303.7931,-142.8 1325.4264,-116.9071 1426.6701,-109.6035 1475.9399,-107.5701"/>
<text text-anchor="middle" x="1342.6207" y="-147" font-family="Times,serif" font-size="14.00" fill="#000000">{89.0 // 0.79}</text>
</g>
<!-- 16&#45;&#45;20 -->
<g id="edge81" class="edge">
<title>16--20</title>
<path fill="none" stroke="#000000" d="M2979.9617,-193.2948C3037.4721,-188.103 3168.0601,-174.7569 3181.0115,-159.6 3185.8621,-153.9235 3186.0347,-148.3243 3181.0115,-142.8 3157.4511,-116.8891 2912.5514,-109.1893 2830.0041,-107.3207"/>
<text text-anchor="middle" x="3222.6207" y="-147" font-family="Times,serif" font-size="14.00" fill="#000000">{87.0 // 0.77}</text>
</g>
<!-- 16&#45;&#45;21 -->
<g id="edge82" class="edge">
<title>16--21</title>
<path fill="none" stroke="#000000" d="M2979.7444,-192.4053C3020.9801,-186.4952 3092.6094,-171.7325 3065.0115,-142.8 3058.5341,-136.0093 2465.7125,-113.0048 2330.328,-107.8366"/>
<text text-anchor="middle" x="3109.6207" y="-147" font-family="Times,serif" font-size="14.00" fill="#000000">{86.0 // 0.76}</text>
</g>
<!-- 16&#45;&#45;22 -->
<g id="edge83" class="edge">
<title>16--22</title>
<path fill="none" stroke="#000000" d="M2925.8219,-194.369C2854.3043,-191.1692 2655.0085,-182.4994 2489.0115,-177.6 2439.6219,-176.1423 1645.7705,-177.698 1599.7931,-159.6 1589.3719,-155.4979 1591.3162,-147.1868 1581.0115,-142.8 1539.4715,-125.1162 1224.9017,-111.5452 1130.0203,-107.8207"/>
<text text-anchor="middle" x="1638.6207" y="-147" font-family="Times,serif" font-size="14.00" fill="#000000">{88.0 // 0.78}</text>
</g>
<!-- 16&#45;&#45;23 -->
<g id="edge84" class="edge">
<title>16--23</title>
<path fill="none" stroke="#000000" d="M2925.978,-193.8853C2855.0234,-189.2137 2664.7502,-175.5393 2603.7931,-159.6 2585.6201,-154.848 2583.2942,-147.1109 2565.0115,-142.8 2549.3101,-139.0978 2053.1411,-114.2576 1930.3095,-108.153"/>
<text text-anchor="middle" x="2641.6207" y="-147" font-family="Times,serif" font-size="14.00" fill="#000000">{85.0 // 0.75}</text>
</g>
<!-- 16&#45;&#45;24 -->
<g id="edge85" class="edge">
<title>16--24</title>
<path fill="none" stroke="#000000" d="M2925.7595,-194.512C2780.6022,-188.7092 2104.6971,-161.5927 2099.7931,-159.6 2089.4175,-155.3839 2091.3444,-147.1198 2081.0115,-142.8 2055.3282,-132.0626 1641.3806,-112.9552 1530.2753,-108.0002"/>
<text text-anchor="middle" x="2137.6207" y="-147" font-family="Times,serif" font-size="14.00" fill="#000000">{87.0 // 0.77}</text>
</g>
<!-- 17&#45;&#45;20 -->
<g id="edge86" class="edge">
<title>17--20</title>
<path fill="none" stroke="#000000" d="M1229.8755,-193.6804C1284.1147,-189.8886 1410.6053,-181.4709 1517.0115,-177.6 1581.6432,-175.2488 2620.7751,-183.1448 2681.0115,-159.6 2691.4426,-155.5228 2690.1453,-148.4876 2699.7931,-142.8 2724.3168,-128.343 2755.539,-118.4682 2777.1904,-112.7692"/>
<text text-anchor="middle" x="2737.6207" y="-147" font-family="Times,serif" font-size="14.00" fill="#000000">{88.0 // 0.78}</text>
</g>
<!-- 17&#45;&#45;21 -->
<g id="edge87" class="edge">
<title>17--21</title>
<path fill="none" stroke="#000000" d="M1229.8796,-193.7858C1284.1263,-190.1837 1410.6296,-182.0901 1517.0115,-177.6 1553.8811,-176.0438 2146.7201,-173.2341 2181.0115,-159.6 2191.4187,-155.4622 2190.1453,-148.4876 2199.7931,-142.8 2224.3168,-128.343 2255.539,-118.4682 2277.1904,-112.7692"/>
<text text-anchor="middle" x="2237.6207" y="-147" font-family="Times,serif" font-size="14.00" fill="#000000">{89.0 // 0.79}</text>
</g>
<!-- 17&#45;&#45;22 -->
<g id="edge88" class="edge">
<title>17--22</title>
<path fill="none" stroke="#000000" d="M1175.7279,-195.2199C1089.7813,-193.7429 828.8505,-187.0186 803.7931,-159.6 766.1168,-118.3733 995.4859,-109.2234 1075.9052,-107.292"/>
<text text-anchor="middle" x="842.6207" y="-147" font-family="Times,serif" font-size="14.00" fill="#000000">{86.0 // 0.76}</text>
</g>
<!-- 17&#45;&#45;23 -->
<g id="edge89" class="edge">
<title>17--23</title>
<path fill="none" stroke="#000000" d="M1230.1019,-194.043C1328.1912,-188.3428 1660.1458,-168.4827 1681.0115,-159.6 1691.3162,-155.2132 1689.721,-147.6971 1699.7931,-142.8 1730.5666,-127.8379 1828.543,-115.1625 1876.3127,-109.6903"/>
<text text-anchor="middle" x="1738.6207" y="-147" font-family="Times,serif" font-size="14.00" fill="#000000">{87.0 // 0.77}</text>
</g>
<!-- 17&#45;&#45;24 -->
<g id="edge90" class="edge">
<title>17--24</title>
<path fill="none" stroke="#000000" d="M1203.9566,-177.4484C1205.5757,-165.7644 1209.6701,-151.236 1219.7931,-142.8 1239.3076,-126.5377 1409.1824,-113.2355 1476.0924,-108.5808"/>
<text text-anchor="middle" x="1258.6207" y="-147" font-family="Times,serif" font-size="14.00" fill="#000000">{85.0 // 0.75}</text>
</g>
<!-- 18&#45;&#45;20 -->
<g id="edge91" class="edge">
<title>18--20</title>
<path fill="none" stroke="#000000" d="M1980.0326,-194.5518C2132.7533,-188.6273 2881.0115,-159.6 2881.0115,-159.6 2900.6806,-139.1531 2857.8616,-122.169 2828.2207,-113.3458"/>
<text text-anchor="middle" x="2923.6207" y="-147" font-family="Times,serif" font-size="14.00" fill="#000000">{86.0 // 0.76}</text>
</g>
<!-- 18&#45;&#45;21 -->
<g id="edge92" class="edge">
<title>18--21</title>
<path fill="none" stroke="#000000" d="M1980.0288,-195.3993C2069.7783,-194.4553 2353.8527,-189.1392 2381.0115,-159.6 2400.1588,-138.7746 2357.8063,-121.9833 2328.3306,-113.2843"/>
<text text-anchor="middle" x="2423.6207" y="-147" font-family="Times,serif" font-size="14.00" fill="#000000">{87.0 // 0.77}</text>
</g>
<!-- 18&#45;&#45;22 -->
<g id="edge93" class="edge">
<title>18--22</title>
<path fill="none" stroke="#000000" d="M1926.0773,-194.0958C1865.7427,-190.764 1715.1371,-182.6577 1589.0115,-177.6 1556.5101,-176.2967 1026.4372,-182.9513 1003.7931,-159.6 979.0707,-134.1054 1039.6486,-118.1741 1076.736,-111.0941"/>
<text text-anchor="middle" x="1042.6207" y="-147" font-family="Times,serif" font-size="14.00" fill="#000000">{89.0 // 0.79}</text>
</g>
<!-- 18&#45;&#45;23 -->
<g id="edge94" class="edge">
<title>18--23</title>
<path fill="none" stroke="#000000" d="M1930.781,-185.3203C1920.6194,-179.3574 1909.5776,-170.7916 1903.7931,-159.6 1898.3209,-149.0126 1898.2049,-135.5623 1899.4163,-124.8869"/>
<text text-anchor="middle" x="1942.6207" y="-147" font-family="Times,serif" font-size="14.00" fill="#000000">{88.0 // 0.78}</text>
</g>
<!-- 18&#45;&#45;24 -->
<g id="edge95" class="edge">
<title>18--24</title>
<path fill="none" stroke="#000000" d="M1925.8986,-194.3232C1816.4794,-189.1081 1412.8257,-169.2441 1403.7931,-159.6 1379.5835,-133.7515 1439.5754,-118.015 1476.5428,-111.0449"/>
<text text-anchor="middle" x="1442.6207" y="-147" font-family="Times,serif" font-size="14.00" fill="#000000">{86.0 // 0.76}</text>
</g>
<!-- 19&#45;&#45;20 -->
<g id="edge96" class="edge">
<title>19--20</title>
<path fill="none" stroke="#000000" d="M2480.0161,-194.7714C2585.3606,-191.4102 2963.7439,-178.085 2981.0115,-159.6 2986.1085,-154.1436 2985.7391,-148.5794 2981.0115,-142.8 2962.2469,-119.8604 2875.0463,-111.1983 2830.0449,-108.2151"/>
<text text-anchor="middle" x="3022.6207" y="-147" font-family="Times,serif" font-size="14.00" fill="#000000">{89.0 // 0.79}</text>
</g>
<!-- 19&#45;&#45;21 -->
<g id="edge97" class="edge">
<title>19--21</title>
<path fill="none" stroke="#000000" d="M2469.3905,-181.2267C2480.147,-170.0502 2490.603,-154.5255 2481.0115,-142.8 2462.2469,-119.8604 2375.0463,-111.1983 2330.0449,-108.2151"/>
<text text-anchor="middle" x="2522.6207" y="-147" font-family="Times,serif" font-size="14.00" fill="#000000">{85.0 // 0.75}</text>
</g>
<!-- 19&#45;&#45;22 -->
<g id="edge98" class="edge">
<title>19--22</title>
<path fill="none" stroke="#000000" d="M2425.8217,-194.3752C2354.3037,-191.1906 2155.0069,-182.554 1989.0115,-177.6 1965.0942,-176.8862 1147.8546,-172.6416 1127.7931,-159.6 1115.9073,-151.8733 1109.6101,-136.8066 1106.3437,-124.739"/>
<text text-anchor="middle" x="1166.6207" y="-147" font-family="Times,serif" font-size="14.00" fill="#000000">{86.0 // 0.76}</text>
</g>
<!-- 19&#45;&#45;23 -->
<g id="edge99" class="edge">
<title>19--23</title>
<path fill="none" stroke="#000000" d="M2425.8534,-195.3634C2340.9965,-194.3222 2081.8442,-188.773 2003.7931,-159.6 1992.0088,-155.1954 1991.8412,-149.2023 1981.0115,-142.8 1963.4226,-132.4017 1942.3207,-122.8227 1926.5032,-116.1641"/>
<text text-anchor="middle" x="2042.6207" y="-147" font-family="Times,serif" font-size="14.00" fill="#000000">{87.0 // 0.77}</text>
</g>
<!-- 19&#45;&#45;24 -->
<g id="edge100" class="edge">
<title>19--24</title>
<path fill="none" stroke="#000000" d="M2425.8165,-194.5289C2354.2859,-191.7151 2154.9614,-183.8969 1989.0115,-177.6 1962.0558,-176.5772 1522.6538,-178.8856 1503.7931,-159.6 1495.0116,-150.6206 1495.4052,-136.1304 1497.6686,-124.5994"/>
<text text-anchor="middle" x="1542.6207" y="-147" font-family="Times,serif" font-size="14.00" fill="#000000">{88.0 // 0.78}</text>
</g>
<!-- 25 -->
<g id="node26" class="node">
<title>25</title>
<ellipse fill="none" stroke="#000000" cx="603.0115" cy="-18" rx="57.3647" ry="18"/>
<text text-anchor="middle" x="603.0115" y="-13.8" font-family="Times,serif" font-size="14.00" fill="#000000">CLIENT 25</text>
</g>
<!-- 20&#45;&#45;25 -->
<g id="edge101" class="edge">
<title>20--25</title>
<path fill="none" stroke="#000000" d="M2775.8227,-105.5412C2704.307,-102.2745 2505.0155,-93.457 2339.0115,-88.8 2281.2912,-87.1807 1353.5542,-91.8713 1299.7931,-70.8 1289.3659,-66.7131 1291.3641,-58.2725 1281.0115,-54 1266.7276,-48.105 820.7012,-27.7028 660.0056,-20.5233"/>
<text text-anchor="middle" x="1338.6207" y="-58.2" font-family="Times,serif" font-size="14.00" fill="#000000">{95.0 // 0.85}</text>
</g>
<!-- 26 -->
<g id="node27" class="node">
<title>26</title>
<ellipse fill="none" stroke="#000000" cx="1103.0115" cy="-18" rx="57.3647" ry="18"/>
<text text-anchor="middle" x="1103.0115" y="-13.8" font-family="Times,serif" font-size="14.00" fill="#000000">CLIENT 26</text>
</g>
<!-- 20&#45;&#45;26 -->
<g id="edge102" class="edge">
<title>20--26</title>
<path fill="none" stroke="#000000" d="M2775.8178,-105.6937C2704.2903,-102.7949 2504.9728,-94.7891 2339.0115,-88.8 2279.104,-86.6381 1855.4285,-93.1226 1799.7931,-70.8 1789.399,-66.6296 1791.3641,-58.2725 1781.0115,-54 1766.7276,-48.105 1320.7012,-27.7028 1160.0056,-20.5233"/>
<text text-anchor="middle" x="1838.6207" y="-58.2" font-family="Times,serif" font-size="14.00" fill="#000000">{98.0 // 0.88}</text>
</g>
<!-- 27 -->
<g id="node28" class="node">
<title>27</title>
<ellipse fill="none" stroke="#000000" cx="1603.0115" cy="-18" rx="57.3647" ry="18"/>
<text text-anchor="middle" x="1603.0115" y="-13.8" font-family="Times,serif" font-size="14.00" fill="#000000">CLIENT 27</text>
</g>
<!-- 20&#45;&#45;27 -->
<g id="edge103" class="edge">
<title>20--27</title>
<path fill="none" stroke="#000000" d="M2775.8794,-105.7264C2678.2364,-101.742 2348.1684,-87.1846 2303.7931,-70.8 2291.9914,-66.4425 2292.854,-58.2456 2281.0115,-54 2252.0235,-43.6077 1818.4675,-26.1894 1660.2482,-20.1439"/>
<text text-anchor="middle" x="2341.6207" y="-58.2" font-family="Times,serif" font-size="14.00" fill="#000000">{97.0 // 0.86}</text>
</g>
<!-- 28 -->
<g id="node29" class="node">
<title>28</title>
<ellipse fill="none" stroke="#000000" cx="203.0115" cy="-18" rx="57.3647" ry="18"/>
<text text-anchor="middle" x="203.0115" y="-13.8" font-family="Times,serif" font-size="14.00" fill="#000000">CLIENT 28</text>
</g>
<!-- 20&#45;&#45;28 -->
<g id="edge104" class="edge">
<title>20--28</title>
<path fill="none" stroke="#000000" d="M2775.8241,-105.4893C2704.3118,-102.0971 2505.0276,-93.0029 2339.0115,-88.8 2254.6316,-86.6638 902.3401,-88.4218 819.7931,-70.8 801.423,-66.8784 799.2771,-58.3828 781.0115,-54 755.9589,-47.9886 400.3868,-28.5198 259.7078,-21.0013"/>
<text text-anchor="middle" x="858.6207" y="-58.2" font-family="Times,serif" font-size="14.00" fill="#000000">{96.0 // 0.87}</text>
</g>
<!-- 29 -->
<g id="node30" class="node">
<title>29</title>
<ellipse fill="none" stroke="#000000" cx="3103.0115" cy="-18" rx="57.3647" ry="18"/>
<text text-anchor="middle" x="3103.0115" y="-13.8" font-family="Times,serif" font-size="14.00" fill="#000000">CLIENT 29</text>
</g>
<!-- 20&#45;&#45;29 -->
<g id="edge105" class="edge">
<title>20--29</title>
<path fill="none" stroke="#000000" d="M2830.1908,-106.3149C2986.4492,-103.4635 3764.0433,-88.4043 3781.0115,-70.8 3786.1932,-65.424 3786.1494,-59.4179 3781.0115,-54 3775.6855,-48.3837 3322.3247,-27.7334 3160.0119,-20.5128"/>
<text text-anchor="middle" x="3822.6207" y="-58.2" font-family="Times,serif" font-size="14.00" fill="#000000">{99.0 // 0.89}</text>
</g>
<!-- 30 -->
<g id="node31" class="node">
<title>30</title>
<ellipse fill="none" stroke="#000000" cx="2603.0115" cy="-18" rx="57.3647" ry="18"/>
<text text-anchor="middle" x="2603.0115" y="-13.8" font-family="Times,serif" font-size="14.00" fill="#000000">CLIENT 30</text>
</g>
<!-- 20&#45;&#45;30 -->
<g id="edge106" class="edge">
<title>20--30</title>
<path fill="none" stroke="#000000" d="M2830.1209,-105.7683C2929.0368,-101.8749 3265.5721,-87.4459 3281.0115,-70.8 3286.0891,-65.3256 3286.1494,-59.4179 3281.0115,-54 3275.6855,-48.3837 2822.3247,-27.7334 2660.0119,-20.5128"/>
<text text-anchor="middle" x="3322.6207" y="-58.2" font-family="Times,serif" font-size="14.00" fill="#000000">{97.0 // 0.88}</text>
</g>
<!-- 31 -->
<g id="node32" class="node">
<title>31</title>
<ellipse fill="none" stroke="#000000" cx="3603.0115" cy="-18" rx="57.3647" ry="18"/>
<text text-anchor="middle" x="3603.0115" y="-13.8" font-family="Times,serif" font-size="14.00" fill="#000000">CLIENT 31</text>
</g>
<!-- 20&#45;&#45;31 -->
<g id="edge107" class="edge">
<title>20--31</title>
<path fill="none" stroke="#000000" d="M2830.0858,-106.3972C2993.9285,-103.8974 3846.4699,-89.9808 3865.0115,-70.8 3870.2011,-65.4316 3869.9188,-59.6276 3865.0115,-54 3851.6967,-38.7306 3732.2012,-27.4038 3659.2674,-21.8414"/>
<text text-anchor="middle" x="3906.6207" y="-58.2" font-family="Times,serif" font-size="14.00" fill="#000000">{98.0 // 0.87}</text>
</g>
<!-- 32 -->
<g id="node33" class="node">
<title>32</title>
<ellipse fill="none" stroke="#000000" cx="2103.0115" cy="-18" rx="57.3647" ry="18"/>
<text text-anchor="middle" x="2103.0115" y="-13.8" font-family="Times,serif" font-size="14.00" fill="#000000">CLIENT 32</text>
</g>
<!-- 20&#45;&#45;32 -->
<g id="edge108" class="edge">
<title>20--32</title>
<path fill="none" stroke="#000000" d="M2795.8013,-89.3045C2789.7716,-77.1178 2779.9074,-61.7164 2766.0115,-54 2752.8316,-46.6812 2318.2378,-27.2748 2159.9487,-20.431"/>
<text text-anchor="middle" x="2821.6207" y="-58.2" font-family="Times,serif" font-size="14.00" fill="#000000">{96.0 // 0.86}</text>
</g>
<!-- 21&#45;&#45;25 -->
<g id="edge109" class="edge">
<title>21--25</title>
<path fill="none" stroke="#000000" d="M2276.0827,-105.1467C2215.7589,-101.5136 2065.1739,-92.8374 1939.0115,-88.8 1870.4161,-86.6048 768.8311,-92.7138 703.7931,-70.8 691.8711,-66.783 691.8412,-60.4023 681.0115,-54 667.4025,-45.9546 651.6906,-38.3997 637.9504,-32.3084"/>
<text text-anchor="middle" x="742.6207" y="-58.2" font-family="Times,serif" font-size="14.00" fill="#000000">{97.0 // 0.88}</text>
</g>
<!-- 21&#45;&#45;26 -->
<g id="edge110" class="edge">
<title>21--26</title>
<path fill="none" stroke="#000000" d="M2276.0796,-105.238C2215.7494,-101.7894 2065.1524,-93.4623 1939.0115,-88.8 1857.3519,-85.7818 1281.1008,-97.2751 1203.7931,-70.8 1191.8912,-66.724 1191.8412,-60.4023 1181.0115,-54 1167.4025,-45.9546 1151.6906,-38.3997 1137.9504,-32.3084"/>
<text text-anchor="middle" x="1242.6207" y="-58.2" font-family="Times,serif" font-size="14.00" fill="#000000">{96.0 // 0.87}</text>
</g>
<!-- 21&#45;&#45;27 -->
<g id="edge111" class="edge">
<title>21--27</title>
<path fill="none" stroke="#000000" d="M2276.0021,-105.3861C2161.0072,-99.34 1717.434,-75.7439 1703.7931,-70.8 1691.9655,-66.5132 1691.8412,-60.4023 1681.0115,-54 1667.4025,-45.9546 1651.6906,-38.3997 1637.9504,-32.3084"/>
<text text-anchor="middle" x="1742.6207" y="-58.2" font-family="Times,serif" font-size="14.00" fill="#000000">{98.0 // 0.89}</text>
</g>
<!-- 21&#45;&#45;28 -->
<g id="edge112" class="edge">
<title>21--28</title>
<path fill="none" stroke="#000000" d="M2276.0837,-105.1148C2215.7619,-101.4174 2065.1807,-92.6194 1939.0115,-88.8 1849.0906,-86.0779 407.6286,-90.2452 319.7931,-70.8 315.326,-69.8111 268.3799,-48.2916 235.3915,-33.0349"/>
<text text-anchor="middle" x="358.6207" y="-58.2" font-family="Times,serif" font-size="14.00" fill="#000000">{95.0 // 0.86}</text>
</g>
<!-- 21&#45;&#45;29 -->
<g id="edge113" class="edge">
<title>21--29</title>
<path fill="none" stroke="#000000" d="M2330.188,-105.7488C2478.0494,-100.0221 3179.1215,-72.7691 3181.0115,-70.8 3197.0345,-54.1066 3171.5144,-39.736 3145.4805,-30.2206"/>
<text text-anchor="middle" x="3223.6207" y="-58.2" font-family="Times,serif" font-size="14.00" fill="#000000">{97.0 // 0.85}</text>
</g>
<!-- 21&#45;&#45;30 -->
<g id="edge114" class="edge">
<title>21--30</title>
<path fill="none" stroke="#000000" d="M2330.0041,-106.2793C2412.5514,-104.4107 2657.4511,-96.7109 2681.0115,-70.8 2696.4682,-53.8013 2671.4642,-39.5573 2645.7557,-30.1646"/>
<text text-anchor="middle" x="2723.6207" y="-58.2" font-family="Times,serif" font-size="14.00" fill="#000000">{99.0 // 0.89}</text>
</g>
<!-- 21&#45;&#45;31 -->
<g id="edge115" class="edge">
<title>21--31</title>
<path fill="none" stroke="#000000" d="M2330.201,-105.5638C2401.7182,-102.3515 2601.0132,-93.6539 2767.0115,-88.8 2792.3945,-88.0578 3663.2331,-88.9321 3681.0115,-70.8 3697.2685,-54.2197 3671.4915,-39.7878 3645.31,-30.2223"/>
<text text-anchor="middle" x="3724.6207" y="-58.2" font-family="Times,serif" font-size="14.00" fill="#000000">{96.0 // 0.88}</text>
</g>
<!-- 21&#45;&#45;32 -->
<g id="edge116" class="edge">
<title>21--32</title>
<path fill="none" stroke="#000000" d="M2277.6994,-99.8214C2257.1259,-93.6363 2227.6997,-83.6049 2203.7931,-70.8 2192.7032,-64.86 2191.8412,-60.4023 2181.0115,-54 2167.4025,-45.9546 2151.6906,-38.3997 2137.9504,-32.3084"/>
<text text-anchor="middle" x="2241.6207" y="-58.2" font-family="Times,serif" font-size="14.00" fill="#000000">{98.0 // 0.87}</text>
</g>
<!-- 22&#45;&#45;25 -->
<g id="edge117" class="edge">
<title>22--25</title>
<path fill="none" stroke="#000000" d="M1075.7711,-106.4346C949.6248,-104.6123 427.3371,-95.5874 403.7931,-70.8 398.6509,-65.3862 399.0058,-59.73 403.7931,-54 421.5955,-32.6923 493.3094,-23.9731 545.6066,-20.4201"/>
<text text-anchor="middle" x="442.6207" y="-58.2" font-family="Times,serif" font-size="14.00" fill="#000000">{98.0 // 0.87}</text>
</g>
<!-- 22&#45;&#45;26 -->
<g id="edge118" class="edge">
<title>22--26</title>
<path fill="none" stroke="#000000" d="M1075.9399,-106.0299C1026.6701,-103.9965 925.4264,-96.6929 903.7931,-70.8 899.0058,-65.07 899.0058,-59.73 903.7931,-54 921.5955,-32.6923 993.3094,-23.9731 1045.6066,-20.4201"/>
<text text-anchor="middle" x="942.6207" y="-58.2" font-family="Times,serif" font-size="14.00" fill="#000000">{99.0 // 0.88}</text>
</g>
<!-- 22&#45;&#45;27 -->
<g id="edge119" class="edge">
<title>22--27</title>
<path fill="none" stroke="#000000" d="M1129.9973,-105.977C1180.2984,-103.8606 1291.4084,-96.4316 1381.0115,-70.8 1398.2903,-65.8573 1400.6791,-59.4861 1417.7931,-54 1461.309,-40.0505 1512.3981,-30.6139 1549.8852,-24.9141"/>
<text text-anchor="middle" x="1456.6207" y="-58.2" font-family="Times,serif" font-size="14.00" fill="#000000">{96.0 // 0.86}</text>
</g>
<!-- 22&#45;&#45;28 -->
<g id="edge120" class="edge">
<title>22--28</title>
<path fill="none" stroke="#000000" d="M1075.8077,-106.4271C908.2684,-104.0678 23.0264,-90.6734 3.7931,-70.8 -1.3995,-65.4346 -.9942,-59.73 3.7931,-54 21.5955,-32.6923 93.3094,-23.9731 145.6066,-20.4201"/>
<text text-anchor="middle" x="42.6207" y="-58.2" font-family="Times,serif" font-size="14.00" fill="#000000">{97.0 // 0.89}</text>
</g>
<!-- 22&#45;&#45;29 -->
<g id="edge121" class="edge">
<title>22--29</title>
<path fill="none" stroke="#000000" d="M1129.9399,-105.1311C1190.2627,-101.4666 1340.8458,-92.731 1467.0115,-88.8 1544.5914,-86.3828 2788.3664,-88.1869 2864.0115,-70.8 2881.1336,-66.8645 2883.0468,-59.3117 2899.7931,-54 2948.8033,-38.4547 3006.7223,-29.0255 3048.1629,-23.7402"/>
<text text-anchor="middle" x="2937.6207" y="-58.2" font-family="Times,serif" font-size="14.00" fill="#000000">{95.0 // 0.88}</text>
</g>
<!-- 22&#45;&#45;30 -->
<g id="edge122" class="edge">
<title>22--30</title>
<path fill="none" stroke="#000000" d="M1129.9419,-105.1939C1190.2689,-101.6562 1340.8599,-93.1604 1467.0115,-88.8 1517.7688,-87.0456 2333.7482,-89.3892 2381.0115,-70.8 2391.4339,-66.7008 2389.721,-58.8971 2399.7931,-54 2425.4108,-41.5447 2497.5995,-30.6739 2548.6271,-24.2242"/>
<text text-anchor="middle" x="2437.6207" y="-58.2" font-family="Times,serif" font-size="14.00" fill="#000000">{98.0 // 0.87}</text>
</g>
<!-- 22&#45;&#45;31 -->
<g id="edge123" class="edge">
<title>22--31</title>
<path fill="none" stroke="#000000" d="M1129.9389,-105.0998C1190.2598,-101.3719 1340.8393,-92.5164 1467.0115,-88.8 1572.415,-85.6953 3262.3326,-94.8118 3365.0115,-70.8 3381.7278,-66.8908 3383.4581,-59.2803 3399.7931,-54 3448.717,-38.1853 3506.6465,-28.7887 3548.1129,-23.5841"/>
<text text-anchor="middle" x="3437.6207" y="-58.2" font-family="Times,serif" font-size="14.00" fill="#000000">{97.0 // 0.89}</text>
</g>
<!-- 22&#45;&#45;32 -->
<g id="edge124" class="edge">
<title>22--32</title>
<path fill="none" stroke="#000000" d="M1129.9508,-105.4128C1190.2957,-102.3175 1340.9206,-94.6587 1467.0115,-88.8 1513.0054,-86.6629 1838.3664,-88.1606 1881.0115,-70.8 1891.3845,-66.5772 1889.721,-58.8971 1899.7931,-54 1925.4108,-41.5447 1997.5995,-30.6739 2048.6271,-24.2242"/>
<text text-anchor="middle" x="1938.6207" y="-58.2" font-family="Times,serif" font-size="14.00" fill="#000000">{99.0 // 0.88}</text>
</g>
<!-- 23&#45;&#45;25 -->
<g id="edge125" class="edge">
<title>23--25</title>
<path fill="none" stroke="#000000" d="M1876.0813,-105.1897C1815.7546,-101.6437 1665.1641,-93.1322 1539.0115,-88.8 1513.0437,-87.9082 622.1251,-89.2136 603.7931,-70.8 594.9965,-61.9642 595.3257,-47.6149 597.5672,-36.1038"/>
<text text-anchor="middle" x="642.6207" y="-58.2" font-family="Times,serif" font-size="14.00" fill="#000000">{96.0 // 0.86}</text>
</g>
<!-- 23&#45;&#45;26 -->
<g id="edge126" class="edge">
<title>23--26</title>
<path fill="none" stroke="#000000" d="M1876.0732,-105.3933C1815.7301,-102.2586 1665.1086,-94.5253 1539.0115,-88.8 1514.837,-87.7024 1120.6762,-88.1371 1103.7931,-70.8 1095.0946,-61.8676 1095.4177,-47.5243 1097.6319,-36.0402"/>
<text text-anchor="middle" x="1142.6207" y="-58.2" font-family="Times,serif" font-size="14.00" fill="#000000">{97.0 // 0.87}</text>
</g>
<!-- 23&#45;&#45;27 -->
<g id="edge127" class="edge">
<title>23--27</title>
<path fill="none" stroke="#000000" d="M1876.0584,-105.5472C1805.9189,-102.0145 1621.887,-90.8996 1603.7931,-70.8 1595.5127,-61.6017 1595.7482,-47.4215 1597.8207,-36.0717"/>
<text text-anchor="middle" x="1642.6207" y="-58.2" font-family="Times,serif" font-size="14.00" fill="#000000">{99.0 // 0.88}</text>
</g>
<!-- 23&#45;&#45;28 -->
<g id="edge128" class="edge">
<title>23--28</title>
<path fill="none" stroke="#000000" d="M1876.083,-105.1366C1815.7599,-101.4832 1665.1761,-92.7686 1539.0115,-88.8 1520.4743,-88.2169 216.9161,-83.9056 203.7931,-70.8 194.9711,-61.9896 195.3019,-47.6387 197.5504,-36.1206"/>
<text text-anchor="middle" x="242.6207" y="-58.2" font-family="Times,serif" font-size="14.00" fill="#000000">{98.0 // 0.86}</text>
</g>
<!-- 23&#45;&#45;29 -->
<g id="edge129" class="edge">
<title>23--29</title>
<path fill="none" stroke="#000000" d="M1929.9427,-105.2162C1990.2713,-101.7235 2140.8653,-93.3129 2267.0115,-88.8 2289.6137,-87.9914 3062.3332,-83.5527 3081.0115,-70.8 3092.4114,-63.0167 3097.9176,-48.1194 3100.5695,-36.128"/>
<text text-anchor="middle" x="3132.6207" y="-58.2" font-family="Times,serif" font-size="14.00" fill="#000000">{96.0 // 0.89}</text>
</g>
<!-- 23&#45;&#45;30 -->
<g id="edge130" class="edge">
<title>23--30</title>
<path fill="none" stroke="#000000" d="M1930.2807,-105.4493C2056.4527,-99.1878 2577.6257,-73.1893 2581.0115,-70.8 2592.2896,-62.8413 2597.8063,-47.959 2600.4932,-36.0181"/>
<text text-anchor="middle" x="2632.6207" y="-58.2" font-family="Times,serif" font-size="14.00" fill="#000000">{95.0 // 0.88}</text>
</g>
<!-- 23&#45;&#45;31 -->
<g id="edge131" class="edge">
<title>23--31</title>
<path fill="none" stroke="#000000" d="M1929.9401,-105.1386C1990.2634,-101.4893 2140.8474,-92.7823 2267.0115,-88.8 2303.4968,-87.6484 3550.7782,-91.256 3581.0115,-70.8 3592.444,-63.0647 3597.9475,-48.1632 3600.59,-36.1581"/>
<text text-anchor="middle" x="3632.6207" y="-58.2" font-family="Times,serif" font-size="14.00" fill="#000000">{99.0 // 0.87}</text>
</g>
<!-- 23&#45;&#45;32 -->
<g id="edge132" class="edge">
<title>23--32</title>
<path fill="none" stroke="#000000" d="M1929.8703,-104.4425C1973.7551,-100.0971 2058.2343,-89.514 2081.0115,-70.8 2091.5234,-62.1633 2097.0849,-47.6491 2099.984,-36.0216"/>
<text text-anchor="middle" x="2131.6207" y="-58.2" font-family="Times,serif" font-size="14.00" fill="#000000">{97.0 // 0.86}</text>
</g>
<!-- 24&#45;&#45;25 -->
<g id="edge133" class="edge">
<title>24--25</title>
<path fill="none" stroke="#000000" d="M1476.0782,-105.2735C1415.7453,-101.8966 1265.1432,-93.7052 1139.0115,-88.8 1121.3728,-88.114 516.097,-83.4574 503.7931,-70.8 483.8001,-50.2324 519.4828,-35.8758 553.4934,-27.379"/>
<text text-anchor="middle" x="542.6207" y="-58.2" font-family="Times,serif" font-size="14.00" fill="#000000">{99.0 // 0.89}</text>
</g>
<!-- 24&#45;&#45;26 -->
<g id="edge134" class="edge">
<title>24--26</title>
<path fill="none" stroke="#000000" d="M1475.9555,-105.3454C1373.1203,-99.7548 1011.9137,-79.5272 1003.7931,-70.8 984.3203,-49.8723 1019.6275,-35.6057 1053.3945,-27.2298"/>
<text text-anchor="middle" x="1042.6207" y="-58.2" font-family="Times,serif" font-size="14.00" fill="#000000">{95.0 // 0.88}</text>
</g>
<!-- 24&#45;&#45;27 -->
<g id="edge135" class="edge">
<title>24--27</title>
<path fill="none" stroke="#000000" d="M1498.4435,-88.5755C1496.7855,-77.5875 1496.774,-63.8577 1503.7931,-54 1510.5157,-44.5588 1534.8212,-35.6579 1557.6912,-29.0686"/>
<text text-anchor="middle" x="1542.6207" y="-58.2" font-family="Times,serif" font-size="14.00" fill="#000000">{96.0 // 0.87}</text>
</g>
<!-- 24&#45;&#45;28 -->
<g id="edge136" class="edge">
<title>24--28</title>
<path fill="none" stroke="#000000" d="M1476.0819,-105.1726C1415.7564,-101.592 1265.1681,-93.015 1139.0115,-88.8 1110.2672,-87.8396 123.9523,-91.3127 103.7931,-70.8 83.6195,-50.2725 119.6307,-35.8715 153.7797,-27.3518"/>
<text text-anchor="middle" x="142.6207" y="-58.2" font-family="Times,serif" font-size="14.00" fill="#000000">{97.0 // 0.86}</text>
</g>
<!-- 24&#45;&#45;29 -->
<g id="edge137" class="edge">
<title>24--29</title>
<path fill="none" stroke="#000000" d="M1529.9408,-105.1613C1590.2656,-101.5577 1740.8524,-92.9374 1867.0115,-88.8 1928.8752,-86.7712 2923.3698,-93.3536 2981.0115,-70.8 2991.4411,-66.7192 2990.1453,-59.6876 2999.7931,-54 3017.8589,-43.35 3039.5598,-35.1866 3058.3918,-29.3475"/>
<text text-anchor="middle" x="3037.6207" y="-58.2" font-family="Times,serif" font-size="14.00" fill="#000000">{98.0 // 0.85}</text>
</g>
<!-- 24&#45;&#45;30 -->
<g id="edge138" class="edge">
<title>24--30</title>
<path fill="none" stroke="#000000" d="M1529.9452,-105.2825C1590.2788,-101.9239 1740.8823,-93.7669 1867.0115,-88.8 1935.2102,-86.1144 2417.617,-96.0865 2481.0115,-70.8 2491.4141,-66.6507 2490.1453,-59.6876 2499.7931,-54 2517.8589,-43.35 2539.5598,-35.1866 2558.3918,-29.3475"/>
<text text-anchor="middle" x="2537.6207" y="-58.2" font-family="Times,serif" font-size="14.00" fill="#000000">{96.0 // 0.89}</text>
</g>
<!-- 24&#45;&#45;31 -->
<g id="edge139" class="edge">
<title>24--31</title>
<path fill="none" stroke="#000000" d="M1529.9394,-105.1151C1590.2612,-101.4184 1740.8424,-92.6217 1867.0115,-88.8 1911.8271,-87.4425 3439.217,-87.0326 3481.0115,-70.8 3491.4513,-66.7453 3490.1453,-59.6876 3499.7931,-54 3517.8589,-43.35 3539.5598,-35.1866 3558.3918,-29.3475"/>
<text text-anchor="middle" x="3537.6207" y="-58.2" font-family="Times,serif" font-size="14.00" fill="#000000">{95.0 // 0.88}</text>
</g>
<!-- 24&#45;&#45;32 -->
<g id="edge140" class="edge">
<title>24--32</title>
<path fill="none" stroke="#000000" d="M1530.0203,-105.7793C1624.9017,-102.0548 1939.4715,-88.4838 1981.0115,-70.8 1991.3162,-66.4132 1990.1453,-59.6876 1999.7931,-54 2017.8589,-43.35 2039.5598,-35.1866 2058.3918,-29.3475"/>
<text text-anchor="middle" x="2038.6207" y="-58.2" font-family="Times,serif" font-size="14.00" fill="#000000">{98.0 // 0.87}</text>
</g>
</g>
</svg>