<?xml version="1.0" encoding="UTF-8" standalone="no"?><!DOCTYPE svg PUBLIC "-//W3C//DTD SVG 1.1//EN" "http://www.w3.org/Graphics/SVG/1.1/DTD/svg11.dtd"><!-- Generated by graphviz version 2.40.1 (20161225.0304)
 --><!-- Title: G Pages: 1 --><svg xmlns="http://www.w3.org/2000/svg" xmlns:xlink="http://www.w3.org/1999/xlink" width="1022pt" height="901pt" viewBox="0.00 0.00 1021.86 900.80">
<g id="graph0" class="graph" transform="scale(1 1) rotate(0) translate(4 896.8)">
<title>G</title>
<polygon fill="#ffffff" stroke="transparent" points="-4,4 -4,-896.8 1017.8647,-896.8 1017.8647,4 -4,4"/>
<!-- 24 -->
<g id="node1" class="node">
<title>24</title>
<ellipse fill="none" stroke="#000000" cx="57.4323" cy="-874.8" rx="57.3647" ry="18"/>
<text text-anchor="middle" x="57.4323" y="-870.6" font-family="Times,serif" font-size="14.00" fill="#000000">CLIENT 24</text>
</g>
<!-- 16 -->
<g id="node2" class="node">
<title>16</title>
<ellipse fill="none" stroke="#000000" cx="68.4323" cy="-786" rx="27" ry="18"/>
<text text-anchor="middle" x="68.4323" y="-781.8" font-family="Times,serif" font-size="14.00" fill="#000000">16</text>
</g>
<!-- 24&#45;&#45;16 -->
<g id="edge1" class="edge">
<title>24--16</title>
<path fill="none" stroke="#000000" d="M59.7115,-856.4006C61.612,-841.0587 64.3046,-819.322 66.1937,-804.072"/>
<text text-anchor="middle" x="103.0415" y="-826.2" font-family="Times,serif" font-size="14.00" fill="#000000">{45.0 // 0.82}</text>
</g>
<!-- 14 -->
<g id="node14" class="node">
<title>14</title>
<ellipse fill="none" stroke="#000000" cx="51.4323" cy="-697.2" rx="27" ry="18"/>
<text text-anchor="middle" x="51.4323" y="-693" font-family="Times,serif" font-size="14.00" fill="#000000">14</text>
</g>
<!-- 16&#45;&#45;14 -->
<g id="edge9" class="edge">
<title>16--14</title>
<path fill="none" stroke="#000000" d="M59.0213,-768.9182C56.2821,-763.0919 53.6439,-756.4235 52.2139,-750 49.7039,-738.7247 49.4754,-725.7578 49.8905,-715.4959"/>
<text text-anchor="middle" x="91.0415" y="-737.4" font-family="Times,serif" font-size="14.00" fill="#000000">{63.0 // 0.71}</text>
</g>
<!-- 12 -->
<g id="node15" class="node">
<title>12</title>
<ellipse fill="none" stroke="#000000" cx="151.4323" cy="-697.2" rx="27" ry="18"/>
<text text-anchor="middle" x="151.4323" y="-693" font-family="Times,serif" font-size="14.00" fill="#000000">12</text>
</g>
<!-- 16&#45;&#45;12 -->
<g id="edge10" class="edge">
<title>16--12</title>
<path fill="none" stroke="#000000" d="M91.7775,-776.6196C104.3237,-770.5908 119.2598,-761.6872 129.4323,-750 138.0384,-740.1124 143.6186,-726.3835 147.0052,-715.4035"/>
<text text-anchor="middle" x="179.0415" y="-737.4" font-family="Times,serif" font-size="14.00" fill="#000000">{55.0 // 0.83}</text>
</g>
<!-- 17 -->
<g id="node16" class="node">
<title>17</title>
<ellipse fill="none" stroke="#000000" cx="351.4323" cy="-697.2" rx="27" ry="18"/>
<text text-anchor="middle" x="351.4323" y="-693" font-family="Times,serif" font-size="14.00" fill="#000000">17</text>
</g>
<!-- 16&#45;&#45;17 -->
<g id="edge11" class="edge">
<title>16--17</title>
<path fill="none" stroke="#000000" d="M94.4942,-781.1881C125.2234,-775.2126 177.657,-764.0673 221.4323,-750 240.0952,-744.0026 244.0619,-740.601 262.2139,-733.2 284.4858,-724.1193 309.9311,-713.8638 327.9327,-706.6283"/>
<text text-anchor="middle" x="301.0415" y="-737.4" font-family="Times,serif" font-size="14.00" fill="#000000">{37.0 // 0.92}</text>
</g>
<!-- 25 -->
<g id="node3" class="node">
<title>25</title>
<ellipse fill="none" stroke="#000000" cx="190.4323" cy="-874.8" rx="57.3647" ry="18"/>
<text text-anchor="middle" x="190.4323" y="-870.6" font-family="Times,serif" font-size="14.00" fill="#000000">CLIENT 25</text>
</g>
<!-- 20 -->
<g id="node4" class="node">
<title>20</title>
<ellipse fill="none" stroke="#000000" cx="337.4323" cy="-786" rx="27" ry="18"/>
<text text-anchor="middle" x="337.4323" y="-781.8" font-family="Times,serif" font-size="14.00" fill="#000000">20</text>
</g>
<!-- 25&#45;&#45;20 -->
<g id="edge2" class="edge">
<title>25--20</title>
<path fill="none" stroke="#000000" d="M206.3093,-857.363C217.245,-846.1335 232.575,-831.8474 248.2139,-822 268.4257,-809.2732 293.8957,-799.5317 312.4429,-793.4114"/>
<text text-anchor="middle" x="287.0415" y="-826.2" font-family="Times,serif" font-size="14.00" fill="#000000">{73.0 // 0.91}</text>
</g>
<!-- 20&#45;&#45;17 -->
<g id="edge12" class="edge">
<title>20--17</title>
<path fill="none" stroke="#000000" d="M340.2654,-768.03C342.6944,-752.6236 346.1757,-730.542 348.6034,-715.1433"/>
<text text-anchor="middle" x="385.0415" y="-737.4" font-family="Times,serif" font-size="14.00" fill="#000000">{44.0 // 0.78}</text>
</g>
<!-- 26 -->
<g id="node5" class="node">
<title>26</title>
<ellipse fill="none" stroke="#000000" cx="323.4323" cy="-874.8" rx="57.3647" ry="18"/>
<text text-anchor="middle" x="323.4323" y="-870.6" font-family="Times,serif" font-size="14.00" fill="#000000">CLIENT 26</text>
</g>
<!-- 26&#45;&#45;20 -->
<g id="edge3" class="edge">
<title>26--20</title>
<path fill="none" stroke="#000000" d="M326.3331,-856.4006C328.7519,-841.0587 332.1789,-819.322 334.5831,-804.072"/>
<text text-anchor="middle" x="371.0415" y="-826.2" font-family="Times,serif" font-size="14.00" fill="#000000">{28.0 // 0.76}</text>
</g>
<!-- 27 -->
<g id="node6" class="node">
<title>27</title>
<ellipse fill="none" stroke="#000000" cx="456.4323" cy="-874.8" rx="57.3647" ry="18"/>
<text text-anchor="middle" x="456.4323" y="-870.6" font-family="Times,serif" font-size="14.00" fill="#000000">CLIENT 27</text>
</g>
<!-- 27&#45;&#45;20 -->
<g id="edge4" class="edge">
<title>27--20</title>
<path fill="none" stroke="#000000" d="M444.9373,-856.9138C437.0966,-845.7817 425.8996,-831.7733 413.4323,-822 397.8057,-809.75 377.3332,-800.3555 361.5737,-794.2398"/>
<text text-anchor="middle" x="468.0415" y="-826.2" font-family="Times,serif" font-size="14.00" fill="#000000">{52.0 // 0.88}</text>
</g>
<!-- 28 -->
<g id="node7" class="node">
<title>28</title>
<ellipse fill="none" stroke="#000000" cx="589.4323" cy="-874.8" rx="57.3647" ry="18"/>
<text text-anchor="middle" x="589.4323" y="-870.6" font-family="Times,serif" font-size="14.00" fill="#000000">CLIENT 28</text>
</g>
<!-- 21 -->
<g id="node8" class="node">
<title>21</title>
<ellipse fill="none" stroke="#000000" cx="556.4323" cy="-786" rx="27" ry="18"/>
<text text-anchor="middle" x="556.4323" y="-781.8" font-family="Times,serif" font-size="14.00" fill="#000000">21</text>
</g>
<!-- 28&#45;&#45;21 -->
<g id="edge5" class="edge">
<title>28--21</title>
<path fill="none" stroke="#000000" d="M582.7543,-856.83C576.9913,-841.3222 568.7148,-819.0511 562.9878,-803.6402"/>
<text text-anchor="middle" x="614.0415" y="-826.2" font-family="Times,serif" font-size="14.00" fill="#000000">{67.0 // 0.65}</text>
</g>
<!-- 18 -->
<g id="node17" class="node">
<title>18</title>
<ellipse fill="none" stroke="#000000" cx="523.4323" cy="-697.2" rx="27" ry="18"/>
<text text-anchor="middle" x="523.4323" y="-693" font-family="Times,serif" font-size="14.00" fill="#000000">18</text>
</g>
<!-- 21&#45;&#45;18 -->
<g id="edge13" class="edge">
<title>21--18</title>
<path fill="none" stroke="#000000" d="M539.5428,-771.9345C533.5287,-765.8767 527.4489,-758.2813 524.2139,-750 519.9441,-739.0698 519.7487,-725.8698 520.6208,-715.4023"/>
<text text-anchor="middle" x="562.0415" y="-737.4" font-family="Times,serif" font-size="14.00" fill="#000000">{91.0 // 0.86}</text>
</g>
<!-- 29 -->
<g id="node9" class="node">
<title>29</title>
<ellipse fill="none" stroke="#000000" cx="722.4323" cy="-874.8" rx="57.3647" ry="18"/>
<text text-anchor="middle" x="722.4323" y="-870.6" font-family="Times,serif" font-size="14.00" fill="#000000">CLIENT 29</text>
</g>
<!-- 22 -->
<g id="node10" class="node">
<title>22</title>
<ellipse fill="none" stroke="#000000" cx="721.4323" cy="-786" rx="27" ry="18"/>
<text text-anchor="middle" x="721.4323" y="-781.8" font-family="Times,serif" font-size="14.00" fill="#000000">22</text>
</g>
<!-- 29&#45;&#45;22 -->
<g id="edge6" class="edge">
<title>29--22</title>
<path fill="none" stroke="#000000" d="M722.2251,-856.4006C722.0524,-841.0587 721.8076,-819.322 721.6358,-804.072"/>
<text text-anchor="middle" x="760.0415" y="-826.2" font-family="Times,serif" font-size="14.00" fill="#000000">{31.0 // 0.79}</text>
</g>
<!-- 23 -->
<g id="node12" class="node">
<title>23</title>
<ellipse fill="none" stroke="#000000" cx="773.4323" cy="-697.2" rx="27" ry="18"/>
<text text-anchor="middle" x="773.4323" y="-693" font-family="Times,serif" font-size="14.00" fill="#000000">23</text>
</g>
<!-- 22&#45;&#45;23 -->
<g id="edge14" class="edge">
<title>22--23</title>
<path fill="none" stroke="#000000" d="M716.7756,-767.8701C715.0265,-757.1796 714.625,-743.7283 720.2139,-733.2 726.5948,-721.1799 738.9804,-712.4405 750.1984,-706.5847"/>
<text text-anchor="middle" x="758.0415" y="-737.4" font-family="Times,serif" font-size="14.00" fill="#000000">{25.0 // 0.73}</text>
</g>
<!-- 22&#45;&#45;18 -->
<g id="edge15" class="edge">
<title>22--18</title>
<path fill="none" stroke="#000000" d="M697.8853,-776.8889C680.2041,-769.9012 655.4819,-759.8189 634.2139,-750 619.3501,-743.1378 616.1526,-740.3651 601.4323,-733.2 582.9264,-724.1921 561.7062,-714.4347 546.0758,-707.3534"/>
<text text-anchor="middle" x="672.0415" y="-737.4" font-family="Times,serif" font-size="14.00" fill="#000000">{58.0 // 0.89}</text>
</g>
<!-- 30 -->
<g id="node11" class="node">
<title>30</title>
<ellipse fill="none" stroke="#000000" cx="823.4323" cy="-786" rx="57.3647" ry="18"/>
<text text-anchor="middle" x="823.4323" y="-781.8" font-family="Times,serif" font-size="14.00" fill="#000000">CLIENT 30</text>
</g>
<!-- 30&#45;&#45;23 -->
<g id="edge7" class="edge">
<title>30--23</title>
<path fill="none" stroke="#000000" d="M817.2346,-767.8354C813.3354,-757.3806 807.8354,-744.1806 801.4323,-733.2 797.364,-726.2233 792.0926,-719.091 787.2226,-713.0348"/>
<text text-anchor="middle" x="848.0415" y="-737.4" font-family="Times,serif" font-size="14.00" fill="#000000">{89.0 // 0.94}</text>
</g>
<!-- 19 -->
<g id="node18" class="node">
<title>19</title>
<ellipse fill="none" stroke="#000000" cx="647.4323" cy="-608.4" rx="27" ry="18"/>
<text text-anchor="middle" x="647.4323" y="-604.2" font-family="Times,serif" font-size="14.00" fill="#000000">19</text>
</g>
<!-- 23&#45;&#45;19 -->
<g id="edge16" class="edge">
<title>23--19</title>
<path fill="none" stroke="#000000" d="M754.8406,-684.0973C731.0182,-667.3082 689.9594,-638.3715 666.1003,-621.5565"/>
<text text-anchor="middle" x="760.0415" y="-648.6" font-family="Times,serif" font-size="14.00" fill="#000000">{76.0 // 0.95}</text>
</g>
<!-- 31 -->
<g id="node13" class="node">
<title>31</title>
<ellipse fill="none" stroke="#000000" cx="956.4323" cy="-786" rx="57.3647" ry="18"/>
<text text-anchor="middle" x="956.4323" y="-781.8" font-family="Times,serif" font-size="14.00" fill="#000000">CLIENT 31</text>
</g>
<!-- 31&#45;&#45;23 -->
<g id="edge8" class="edge">
<title>31--23</title>
<path fill="none" stroke="#000000" d="M938.7005,-768.7233C926.112,-757.2729 908.3316,-742.6697 890.4323,-733.2 861.1273,-717.696 824.0912,-707.7194 799.6284,-702.2908"/>
<text text-anchor="middle" x="954.0415" y="-737.4" font-family="Times,serif" font-size="14.00" fill="#000000">{42.0 // 0.85}</text>
</g>
<!-- 9 -->
<g id="node19" class="node">
<title>9</title>
<ellipse fill="none" stroke="#000000" cx="96.4323" cy="-608.4" rx="27" ry="18"/>
<text text-anchor="middle" x="96.4323" y="-604.2" font-family="Times,serif" font-size="14.00" fill="#000000">9</text>
</g>
<!-- 14&#45;&#45;9 -->
<g id="edge17" class="edge">
<title>14--9</title>
<path fill="none" stroke="#000000" d="M48.0376,-679.2134C46.8974,-668.5737 47.0177,-655.1255 52.2139,-644.4 57.1343,-634.2439 66.4411,-625.9942 75.2519,-619.9669"/>
<text text-anchor="middle" x="91.0415" y="-648.6" font-family="Times,serif" font-size="14.00" fill="#000000">{33.0 // 0.67}</text>
</g>
<!-- 12&#45;&#45;9 -->
<g id="edge18" class="edge">
<title>12--9</title>
<path fill="none" stroke="#000000" d="M145.7401,-679.3257C141.9457,-668.7258 136.3811,-655.2801 129.4323,-644.4 124.5949,-636.8257 118.1056,-629.3518 112.1619,-623.1937"/>
<text text-anchor="middle" x="177.0415" y="-648.6" font-family="Times,serif" font-size="14.00" fill="#000000">{82.0 // 0.81}</text>
</g>
<!-- 10 -->
<g id="node20" class="node">
<title>10</title>
<ellipse fill="none" stroke="#000000" cx="260.4323" cy="-554.4" rx="27" ry="18"/>
<text text-anchor="middle" x="260.4323" y="-550.2" font-family="Times,serif" font-size="14.00" fill="#000000">10</text>
</g>
<!-- 12&#45;&#45;10 -->
<g id="edge19" class="edge">
<title>12--10</title>
<path fill="none" stroke="#000000" d="M175.9353,-689.1992C190.2911,-683.4152 207.8253,-674.2953 219.4323,-661.2 242.2231,-635.4869 252.9346,-595.7532 257.4846,-572.6913"/>
<text text-anchor="middle" x="270.0415" y="-648.6" font-family="Times,serif" font-size="14.00" fill="#000000">{47.0 // 0.93}</text>
</g>
<!-- 13 -->
<g id="node21" class="node">
<title>13</title>
<ellipse fill="none" stroke="#000000" cx="397.4323" cy="-608.4" rx="27" ry="18"/>
<text text-anchor="middle" x="397.4323" y="-604.2" font-family="Times,serif" font-size="14.00" fill="#000000">13</text>
</g>
<!-- 17&#45;&#45;13 -->
<g id="edge20" class="edge">
<title>17--13</title>
<path fill="none" stroke="#000000" d="M360.3016,-680.0785C368.4472,-664.354 380.4534,-641.1768 388.5903,-625.469"/>
<text text-anchor="middle" x="417.0415" y="-648.6" font-family="Times,serif" font-size="14.00" fill="#000000">{69.0 // 0.88}</text>
</g>
<!-- 11 -->
<g id="node22" class="node">
<title>11</title>
<ellipse fill="none" stroke="#000000" cx="521.4323" cy="-500.4" rx="27" ry="18"/>
<text text-anchor="middle" x="521.4323" y="-496.2" font-family="Times,serif" font-size="14.00" fill="#000000">11</text>
</g>
<!-- 18&#45;&#45;11 -->
<g id="edge21" class="edge">
<title>18--11</title>
<path fill="none" stroke="#000000" d="M523.2478,-679.0383C522.8668,-641.5471 521.9971,-555.9715 521.6165,-518.5178"/>
<text text-anchor="middle" x="561.0415" y="-604.2" font-family="Times,serif" font-size="14.00" fill="#000000">{51.0 // 0.77}</text>
</g>
<!-- 19&#45;&#45;11 -->
<g id="edge22" class="edge">
<title>19--11</title>
<path fill="none" stroke="#000000" d="M624.1828,-598.7666C617.4973,-596.0297 610.1872,-593.0687 603.4323,-590.4 582.5444,-582.1475 572.7615,-587.5851 556.2139,-572.4 547.7246,-564.6096 535.6202,-536.6484 528.1585,-517.9511"/>
<text text-anchor="middle" x="594.0415" y="-550.2" font-family="Times,serif" font-size="14.00" fill="#000000">{84.0 // 0.84}</text>
</g>
<!-- 15 -->
<g id="node23" class="node">
<title>15</title>
<ellipse fill="none" stroke="#000000" cx="598.4323" cy="-106.8" rx="27" ry="18"/>
<text text-anchor="middle" x="598.4323" y="-102.6" font-family="Times,serif" font-size="14.00" fill="#000000">15</text>
</g>
<!-- 19&#45;&#45;15 -->
<g id="edge23" class="edge">
<title>19--15</title>
<path fill="none" stroke="#000000" d="M647.4323,-590.055C647.4323,-568.568 647.4323,-531.9 647.4323,-500.4 647.4323,-500.4 647.4323,-500.4 647.4323,-195.6 647.4323,-166.899 627.5672,-138.7464 613.1339,-122.0796"/>
<text text-anchor="middle" x="686.0415" y="-343.8" font-family="Times,serif" font-size="14.00" fill="#000000">{29.0 // 0.69}</text>
</g>
<!-- 1 -->
<g id="node26" class="node">
<title>1</title>
<ellipse fill="none" stroke="#000000" cx="76.4323" cy="-446.4" rx="27" ry="18"/>
<text text-anchor="middle" x="76.4323" y="-442.2" font-family="Times,serif" font-size="14.00" fill="#000000">1</text>
</g>
<!-- 9&#45;&#45;1 -->
<g id="edge27" class="edge">
<title>9--1</title>
<path fill="none" stroke="#000000" d="M74.3201,-597.9018C64.4152,-591.9297 53.739,-583.42 48.2139,-572.4 30.0289,-536.1288 51.6649,-488.1608 65.903,-463.1677"/>
<text text-anchor="middle" x="87.0415" y="-550.2" font-family="Times,serif" font-size="14.00" fill="#000000">{95.0 // 0.72}</text>
</g>
<!-- 5 -->
<g id="node27" class="node">
<title>5</title>
<ellipse fill="none" stroke="#000000" cx="153.4323" cy="-500.4" rx="27" ry="18"/>
<text text-anchor="middle" x="153.4323" y="-496.2" font-family="Times,serif" font-size="14.00" fill="#000000">5</text>
</g>
<!-- 9&#45;&#45;5 -->
<g id="edge28" class="edge">
<title>9--5</title>
<path fill="none" stroke="#000000" d="M112.4501,-593.7831C118.4335,-587.6493 124.8746,-580.1459 129.4323,-572.4 139.4553,-555.3658 145.9724,-533.5743 149.6509,-518.4487"/>
<text text-anchor="middle" x="183.0415" y="-550.2" font-family="Times,serif" font-size="14.00" fill="#000000">{38.0 // 0.83}</text>
</g>
<!-- 2 -->
<g id="node28" class="node">
<title>2</title>
<ellipse fill="none" stroke="#000000" cx="238.4323" cy="-392.4" rx="27" ry="18"/>
<text text-anchor="middle" x="238.4323" y="-388.2" font-family="Times,serif" font-size="14.00" fill="#000000">2</text>
</g>
<!-- 10&#45;&#45;2 -->
<g id="edge29" class="edge">
<title>10--2</title>
<path fill="none" stroke="#000000" d="M257.9939,-536.4442C253.765,-505.3045 245.1181,-441.6319 240.8817,-410.4362"/>
<text text-anchor="middle" x="294.0415" y="-496.2" font-family="Times,serif" font-size="14.00" fill="#000000">{71.0 // 0.94}</text>
</g>
<!-- 13&#45;&#45;11 -->
<g id="edge25" class="edge">
<title>13--11</title>
<path fill="none" stroke="#000000" d="M403.9079,-590.851C411.1037,-572.1556 422.8142,-544.1962 431.2139,-536.4 447.6753,-521.1214 457.5781,-526.7372 478.4323,-518.4 484.895,-515.8163 491.8682,-512.9372 498.2797,-510.2527"/>
<text text-anchor="middle" x="469.0415" y="-550.2" font-family="Times,serif" font-size="14.00" fill="#000000">{62.0 // 0.91}</text>
</g>
<!-- 6 -->
<g id="node25" class="node">
<title>6</title>
<ellipse fill="none" stroke="#000000" cx="420.4323" cy="-392.4" rx="27" ry="18"/>
<text text-anchor="middle" x="420.4323" y="-388.2" font-family="Times,serif" font-size="14.00" fill="#000000">6</text>
</g>
<!-- 13&#45;&#45;6 -->
<g id="edge26" class="edge">
<title>13--6</title>
<path fill="none" stroke="#000000" d="M398.719,-590.0092C400.503,-565.4459 403.9905,-520.5883 408.2139,-482.4 410.9699,-457.4803 415.0158,-428.7974 417.6861,-410.6388"/>
<text text-anchor="middle" x="446.0415" y="-496.2" font-family="Times,serif" font-size="14.00" fill="#000000">{43.0 // 0.86}</text>
</g>
<!-- 11&#45;&#45;6 -->
<g id="edge30" class="edge">
<title>11--6</title>
<path fill="none" stroke="#000000" d="M506.9615,-484.9262C487.7614,-464.3954 454.0629,-428.3614 434.8763,-407.8451"/>
<text text-anchor="middle" x="524.0415" y="-442.2" font-family="Times,serif" font-size="14.00" fill="#000000">{56.0 // 0.79}</text>
</g>
<!-- 8 -->
<g id="node24" class="node">
<title>8</title>
<ellipse fill="none" stroke="#000000" cx="443.4323" cy="-195.6" rx="27" ry="18"/>
<text text-anchor="middle" x="443.4323" y="-191.4" font-family="Times,serif" font-size="14.00" fill="#000000">8</text>
</g>
<!-- 8&#45;&#45;15 -->
<g id="edge24" class="edge">
<title>8--15</title>
<path fill="none" stroke="#000000" d="M465.4582,-185.0818C479.6194,-178.1606 498.3171,-168.7248 514.4323,-159.6 537.0657,-146.7844 562.2237,-130.7173 579.0535,-119.6931"/>
<text text-anchor="middle" x="581.0415" y="-147" font-family="Times,serif" font-size="14.00" fill="#000000">{10.0 // 0.67}</text>
</g>
<!-- 4 -->
<g id="node31" class="node">
<title>4</title>
<ellipse fill="none" stroke="#000000" cx="421.4323" cy="-106.8" rx="27" ry="18"/>
<text text-anchor="middle" x="421.4323" y="-102.6" font-family="Times,serif" font-size="14.00" fill="#000000">4</text>
</g>
<!-- 8&#45;&#45;4 -->
<g id="edge34" class="edge">
<title>8--4</title>
<path fill="none" stroke="#000000" d="M438.9803,-177.63C435.1634,-162.2236 429.6927,-140.142 425.8777,-124.7433"/>
<text text-anchor="middle" x="472.0415" y="-147" font-family="Times,serif" font-size="14.00" fill="#000000">{49.0 // 0.87}</text>
</g>
<!-- 3 -->
<g id="node29" class="node">
<title>3</title>
<ellipse fill="none" stroke="#000000" cx="343.4323" cy="-249.6" rx="27" ry="18"/>
<text text-anchor="middle" x="343.4323" y="-245.4" font-family="Times,serif" font-size="14.00" fill="#000000">3</text>
</g>
<!-- 6&#45;&#45;3 -->
<g id="edge31" class="edge">
<title>6--3</title>
<path fill="none" stroke="#000000" d="M394.5504,-386.6143C378.333,-381.5347 358.6002,-372.3728 348.2139,-356.4 330.7101,-329.4813 334.6801,-290.1714 339.0944,-267.5111"/>
<text text-anchor="middle" x="387.0415" y="-343.8" font-family="Times,serif" font-size="14.00" fill="#000000">{87.0 // 0.88}</text>
</g>
<!-- 7 -->
<g id="node30" class="node">
<title>7</title>
<ellipse fill="none" stroke="#000000" cx="443.4323" cy="-303.6" rx="27" ry="18"/>
<text text-anchor="middle" x="443.4323" y="-299.4" font-family="Times,serif" font-size="14.00" fill="#000000">7</text>
</g>
<!-- 6&#45;&#45;7 -->
<g id="edge32" class="edge">
<title>6--7</title>
<path fill="none" stroke="#000000" d="M425.0867,-374.43C429.0771,-359.0236 434.7965,-336.942 438.7849,-321.5433"/>
<text text-anchor="middle" x="472.0415" y="-343.8" font-family="Times,serif" font-size="14.00" fill="#000000">{34.0 // 0.75}</text>
</g>
<!-- 0 -->
<g id="node32" class="node">
<title>0</title>
<ellipse fill="none" stroke="#000000" cx="290.4323" cy="-18" rx="55.097" ry="18"/>
<text text-anchor="middle" x="290.4323" y="-13.8" font-family="Times,serif" font-size="14.00" fill="#000000">SERVER 0</text>
</g>
<!-- 1&#45;&#45;0 -->
<g id="edge35" class="edge">
<title>1--0</title>
<path fill="none" stroke="#000000" d="M87.22,-429.7375C98.4544,-410.749 114.4323,-378.3995 114.4323,-348 114.4323,-348 114.4323,-348 114.4323,-106.8 114.4323,-51.3563 184.9118,-30.5234 236.6702,-22.6996"/>
<text text-anchor="middle" x="153.0415" y="-245.4" font-family="Times,serif" font-size="14.00" fill="#000000">{77.0 // 0.93}</text>
</g>
<!-- 5&#45;&#45;2 -->
<g id="edge39" class="edge">
<title>5--2</title>
<path fill="none" stroke="#000000" d="M149.8172,-482.4549C147.7002,-466.7806 147.2709,-444.1362 158.2139,-428.4 170.5895,-410.6038 193.9174,-401.4739 212.2397,-396.8715"/>
<text text-anchor="middle" x="197.0415" y="-442.2" font-family="Times,serif" font-size="14.00" fill="#000000">{59.0 // 0.76}</text>
</g>
<!-- 2&#45;&#45;0 -->
<g id="edge36" class="edge">
<title>2--0</title>
<path fill="none" stroke="#000000" d="M238.4323,-374.3721C238.4323,-356.4311 238.4323,-328.1125 238.4323,-303.6 238.4323,-303.6 238.4323,-303.6 238.4323,-106.8 238.4323,-78.9299 257.7419,-52.0517 272.8275,-35.3057"/>
<text text-anchor="middle" x="277.0415" y="-191.4" font-family="Times,serif" font-size="14.00" fill="#000000">{53.0 // 0.85}</text>
</g>
<!-- 3&#45;&#45;0 -->
<g id="edge37" class="edge">
<title>3--0</title>
<path fill="none" stroke="#000000" d="M339.2735,-231.4267C329.366,-188.1326 304.4599,-79.2976 294.5718,-36.0888"/>
<text text-anchor="middle" x="362.0415" y="-147" font-family="Times,serif" font-size="14.00" fill="#000000">{41.0 // 0.78}</text>
</g>
<!-- 7&#45;&#45;8 -->
<g id="edge33" class="edge">
<title>7--8</title>
<path fill="none" stroke="#000000" d="M443.4323,-285.2793C443.4323,-265.299 443.4323,-233.5231 443.4323,-213.6502"/>
<text text-anchor="middle" x="482.0415" y="-245.4" font-family="Times,serif" font-size="14.00" fill="#000000">{66.0 // 0.82}</text>
</g>
<!-- 4&#45;&#45;0 -->
<g id="edge38" class="edge">
<title>4--0</title>
<path fill="none" stroke="#000000" d="M405.549,-92.1964C393.0004,-81.0375 374.771,-65.645 357.4323,-54 346.1416,-46.4169 333.0904,-39.1081 321.5231,-33.0805"/>
<text text-anchor="middle" x="418.0415" y="-58.2" font-family="Times,serif" font-size="14.00" fill="#000000">{68.0 // 0.89}</text>
</g>
</g>
</svg>